<svg xmlns="http://www.w3.org/2000/svg" x="0px" y="0px"
width="64" height="64"
viewBox="0 0 172 172"
style=" fill:#000000;"><g fill="none" fill-rule="nonzero" stroke="none" stroke-width="1" stroke-linecap="butt" stroke-linejoin="miter" stroke-miterlimit="10" stroke-dasharray="" stroke-dashoffset="0" font-family="none" font-weight="none" font-size="none" text-anchor="none" style="mix-blend-mode: normal"><path d="M0,172v-172h172v172z" fill="none"></path><g fill="#000000"><path d="M86,13.4375c-17.06562,0 -30.90625,13.84063 -30.90625,30.90625c0,17.06563 13.84063,30.90625 30.90625,30.90625c17.06562,0 30.90625,-13.84062 30.90625,-30.90625c0,-17.06562 -13.84063,-30.90625 -30.90625,-30.90625zM86,21.5c12.63125,0 22.84375,10.2125 22.84375,22.84375c0,12.63125 -10.2125,22.84375 -22.84375,22.84375c-12.63125,0 -22.84375,-10.2125 -22.84375,-22.84375c0,-12.63125 10.2125,-22.84375 22.84375,-22.84375zM31.04272,22.88049c-0.78105,-0.05984 -1.58048,0.09816 -2.28595,0.50128c-7.525,4.3 -12.90105,11.42082 -15.18543,19.75207c-2.28437,8.33125 -1.07447,17.20053 3.22553,24.72553c0.80625,1.34375 2.14947,2.01563 3.49322,2.01563c0.67188,0 1.34375,-0.1349 2.01563,-0.53803c7.525,-4.3 12.90105,-11.42082 15.18543,-19.75207c2.28437,-8.33125 1.07447,-17.20053 -3.22553,-24.72553c-0.67187,-1.17578 -1.92114,-1.87915 -3.2229,-1.97888zM141.09113,22.88049c-1.30176,0.09973 -2.55103,0.8031 -3.2229,1.97888c-4.3,7.525 -5.5099,16.2599 -3.22552,24.72553c2.28438,8.33125 7.66042,15.45207 15.18542,19.75207c0.67188,0.40313 1.34375,0.53803 2.01563,0.53803c0.40312,0 0.67292,0.00053 1.07605,-0.13385c1.075,-0.26875 1.87968,-0.94115 2.41718,-1.88178c9.00313,-15.5875 3.6276,-35.47447 -11.9599,-44.4776c-0.70547,-0.40313 -1.50489,-0.56112 -2.28595,-0.50128zM29.15833,32.92188c3.35938,9.54062 0.53907,20.29062 -7.1203,26.875c-3.49375,-9.54062 -0.67345,-20.29062 7.1203,-26.875zM142.97552,32.92188c7.65938,6.58438 10.61615,17.33438 7.25677,26.875c-3.7625,-3.225 -6.45105,-7.38958 -7.7948,-12.36145c-1.34375,-4.8375 -1.07448,-9.81042 0.53802,-14.51355zM51.58215,73.80652c-0.5207,-0.03359 -1.0582,0.03202 -1.5957,0.23358c-5.9125,2.15 -11.28645,6.18125 -15.04895,11.42188c-1.34375,1.74688 -0.94167,4.30157 0.93958,5.64532c1.74688,1.34375 4.30157,0.93905 5.64532,-0.9422c2.01563,-2.6875 4.56875,-4.97187 7.39063,-6.71875c1.20937,6.85312 -0.67293,13.84063 -5.1073,19.48438c-1.34375,1.74688 -1.07447,4.30157 0.53803,5.64532c0.80625,0.5375 1.61303,0.93958 2.55365,0.93958c1.20937,0 2.2828,-0.53697 3.08905,-1.4776c7.25625,-9.00313 9.2724,-20.82812 5.24115,-31.57812c-0.40313,-0.94062 -1.07447,-1.88282 -2.14947,-2.28595c-0.47031,-0.20156 -0.97527,-0.33384 -1.49597,-0.36743zM120.46771,73.80652c-0.5375,0.03359 -1.07553,0.16587 -1.54584,0.36743c-0.94062,0.40312 -1.74635,1.21095 -2.14947,2.28595c-3.89688,10.75 -1.88125,22.575 5.375,31.57813c0.80625,0.94062 2.01405,1.4776 3.08905,1.4776c0.94062,0 1.7474,-0.2677 2.55365,-0.93958c1.74687,-1.34375 2.01615,-3.89845 0.53803,-5.64532c-4.43438,-5.50937 -6.31667,-12.63125 -5.1073,-19.48437c2.95625,1.74688 5.375,4.03125 7.39063,6.71875c1.34375,1.74688 3.76407,2.15157 5.64532,0.9422c1.74687,-1.34375 2.14895,-3.76407 0.93958,-5.64532c-3.7625,-5.24062 -9.00155,-9.27187 -15.1828,-11.42187c-0.47031,-0.20156 -1.00834,-0.26718 -1.54584,-0.23358zM5.91302,81.8349c-2.28437,0 -4.03125,1.74688 -4.03125,4.03125c0,18.00625 14.64582,32.5177 32.5177,32.5177c2.28437,0 4.03125,-1.74687 4.03125,-4.03125c0,-18.00625 -14.64582,-32.5177 -32.5177,-32.5177zM166.22083,81.8349c-18.00625,0 -32.5177,14.64582 -32.5177,32.5177c0,2.28438 1.74687,4.03125 4.03125,4.03125c18.00625,0 32.5177,-14.64582 32.5177,-32.5177c0,-2.28437 -1.74687,-4.03125 -4.03125,-4.03125zM10.34583,90.29895c9.94375,1.88125 17.87397,9.6771 19.62085,19.62085c-9.94375,-1.88125 -17.7396,-9.6771 -19.62085,-19.62085zM161.78802,90.29895c-1.74687,9.94375 -9.67448,17.7396 -19.61823,19.62085c1.88125,-9.94375 9.67448,-17.87397 19.61823,-19.62085zM63.01978,107.53674c-1.30176,0.09973 -2.55103,0.8031 -3.2229,1.97888c-2.82187,4.8375 -4.29895,10.34792 -4.29895,15.8573c0,2.28438 1.74687,4.03125 4.03125,4.03125c2.28438,0 4.03125,-1.74687 4.03125,-4.03125c0,-2.6875 0.53698,-5.37552 1.4776,-7.92865c5.375,4.43437 8.46615,11.01875 8.60052,18.14062c0,2.15 1.88125,3.8974 4.03125,3.8974h0.13385c2.28437,0 4.03177,-1.88335 3.8974,-4.16772c-0.26875,-11.15313 -6.45157,-21.49843 -16.39532,-27.27655c-0.70547,-0.40313 -1.5049,-0.56112 -2.28595,-0.50128zM109.24792,107.67059c-0.78105,-0.05984 -1.58048,0.09816 -2.28595,0.50128c-9.94375,5.77813 -15.9901,16.125 -16.25885,27.54688c0,2.28438 1.7474,4.03073 3.8974,4.1651h0.13385c2.01563,-0.13438 3.8974,-1.88073 3.8974,-4.1651c0.13437,-7.12187 3.22552,-13.70625 8.60052,-18.14062c0.94063,2.55313 1.34323,5.24115 1.4776,7.92865c0,2.28437 1.88125,3.89687 4.03125,4.03125c2.28437,0 4.03125,-1.88125 4.03125,-4.03125c-0.13437,-5.50937 -1.61407,-11.0198 -4.30157,-15.8573c-0.67187,-1.17578 -1.92114,-1.87915 -3.2229,-1.97888zM127.54865,132.71893c-2.50483,-0.04829 -5.03119,0.1433 -7.55072,0.58002c-10.07812,1.74688 -18.81302,7.3922 -24.72552,15.72345c-1.34375,1.88125 -0.8073,4.29895 0.93957,5.6427c6.45,4.56875 14.11043,6.98907 21.90418,6.98907c2.28437,0 4.43437,-0.1349 6.71875,-0.53802c10.07812,-1.74687 18.81302,-7.3922 24.72552,-15.72345c1.34375,-2.01562 0.80468,-4.4328 -0.9422,-5.77655c-6.24844,-4.43437 -13.55508,-6.75234 -21.06958,-6.89722zM44.60358,132.7373c-7.48301,0.17637 -14.73873,2.54525 -21.08795,6.87884c-1.88125,1.34375 -2.28333,3.76145 -0.93958,5.6427c5.9125,8.33125 14.64478,13.97657 24.7229,15.72345c2.28438,0.40312 4.43437,0.5354 6.71875,0.5354c7.79375,0 15.3198,-2.4177 21.90417,-6.98645c1.88125,-1.34375 2.28333,-3.76145 0.93958,-5.6427c-5.9125,-8.19688 -14.64478,-13.84272 -24.7229,-15.5896c-2.51953,-0.43672 -5.04064,-0.62043 -7.53497,-0.56165zM126.323,140.74206c4.8438,-0.06928 9.63143,1.0897 13.96503,3.30689c-4.56875,4.70313 -10.34687,7.79532 -16.79687,9.0047c-6.45,1.20937 -13.03438,0.1349 -18.8125,-2.82135c4.43437,-4.70312 10.2125,-7.9297 16.79688,-9.0047c1.6125,-0.30234 3.23287,-0.46244 4.84747,-0.48554zM45.81085,140.7998c1.6146,0.0168 3.23497,0.15905 4.84747,0.4278c6.45,1.20937 12.3625,4.30157 16.79688,9.0047c-5.77812,2.95625 -12.22813,3.89635 -18.8125,2.82135c-6.45,-1.20937 -12.3625,-4.30157 -16.79687,-9.0047c4.33359,-2.21719 9.12123,-3.29954 13.96503,-3.24915z"></path></g></g></svg>