<svg xmlns="http://www.w3.org/2000/svg" x="0px" y="0px" width="64" height="64" viewBox="0 0 172 172"
    style=" fill:#000000;">
    <g fill="none" fill-rule="nonzero" stroke="none" stroke-width="1" stroke-linecap="butt" stroke-linejoin="miter"
        stroke-miterlimit="10" stroke-dasharray="" stroke-dashoffset="0" font-family="none" font-weight="none"
        font-size="none" text-anchor="none" style="mix-blend-mode: normal">
        <path d="M0,172v-172h172v172z" fill="none"></path>
        <g fill="#000000">
            <path
                d="M65.84375,1.34375c-2.28438,0 -4.03125,1.74687 -4.03125,4.03125v161.25c0,2.28438 1.74687,4.03125 4.03125,4.03125c2.28437,0 4.03125,-1.74687 4.03125,-4.03125v-157.21875h86v157.21875c0,2.28438 1.74687,4.03125 4.03125,4.03125c2.28438,0 4.03125,-1.74687 4.03125,-4.03125v-161.25c0,-2.28438 -1.74687,-4.03125 -4.03125,-4.03125zM90.03125,25.53125c-2.28437,0 -4.03125,1.74687 -4.03125,4.03125v5.375c0,2.28437 1.74688,4.03125 4.03125,4.03125c2.28437,0 4.03125,-1.74688 4.03125,-4.03125v-5.375c0,-2.28438 -1.74688,-4.03125 -4.03125,-4.03125zM112.875,25.53125c-2.28437,0 -4.03125,1.74687 -4.03125,4.03125v5.375c0,2.28437 1.74688,4.03125 4.03125,4.03125c2.28437,0 4.03125,-1.74688 4.03125,-4.03125v-5.375c0,-2.28438 -1.74688,-4.03125 -4.03125,-4.03125zM135.71875,25.53125c-2.28438,0 -4.03125,1.74687 -4.03125,4.03125v5.375c0,2.28437 1.74687,4.03125 4.03125,4.03125c2.28438,0 4.03125,-1.74688 4.03125,-4.03125v-5.375c0,-2.28438 -1.74687,-4.03125 -4.03125,-4.03125zM48.50885,44.34637c-0.5291,-0.0189 -1.07395,0.06351 -1.61145,0.26508l-34.9375,13.4375c-1.47813,0.5375 -2.55365,2.15105 -2.55365,3.76355v104.8125c0,2.28438 1.74688,4.03125 4.03125,4.03125c2.28437,0 4.03125,-1.74687 4.03125,-4.03125v-101.99115l32.38385,-12.4953c2.01563,-0.80625 3.0922,-3.09115 2.28595,-5.24115c-0.60469,-1.51172 -2.0424,-2.49434 -3.6297,-2.55103zM90.03125,52.40625c-2.28437,0 -4.03125,1.74687 -4.03125,4.03125v5.375c0,2.28437 1.74688,4.03125 4.03125,4.03125c2.28437,0 4.03125,-1.74688 4.03125,-4.03125v-5.375c0,-2.28438 -1.74688,-4.03125 -4.03125,-4.03125zM112.875,52.40625c-2.28437,0 -4.03125,1.74687 -4.03125,4.03125v5.375c0,2.28437 1.74688,4.03125 4.03125,4.03125c2.28437,0 4.03125,-1.74688 4.03125,-4.03125v-5.375c0,-2.28438 -1.74688,-4.03125 -4.03125,-4.03125zM135.71875,52.40625c-2.28438,0 -4.03125,1.74687 -4.03125,4.03125v5.375c0,2.28437 1.74687,4.03125 4.03125,4.03125c2.28438,0 4.03125,-1.74688 4.03125,-4.03125v-5.375c0,-2.28438 -1.74687,-4.03125 -4.03125,-4.03125zM40.3125,79.28125c-2.28437,0 -4.03125,1.74688 -4.03125,4.03125v5.375c0,2.28437 1.74688,4.03125 4.03125,4.03125c2.28437,0 4.03125,-1.74688 4.03125,-4.03125v-5.375c0,-2.28437 -1.74688,-4.03125 -4.03125,-4.03125zM90.03125,79.28125c-2.28437,0 -4.03125,1.74688 -4.03125,4.03125v5.375c0,2.28437 1.74688,4.03125 4.03125,4.03125c2.28437,0 4.03125,-1.74688 4.03125,-4.03125v-5.375c0,-2.28437 -1.74688,-4.03125 -4.03125,-4.03125zM112.875,79.28125c-2.28437,0 -4.03125,1.74688 -4.03125,4.03125v5.375c0,2.28437 1.74688,4.03125 4.03125,4.03125c2.28437,0 4.03125,-1.74688 4.03125,-4.03125v-5.375c0,-2.28437 -1.74688,-4.03125 -4.03125,-4.03125zM135.71875,79.28125c-2.28438,0 -4.03125,1.74688 -4.03125,4.03125v5.375c0,2.28437 1.74687,4.03125 4.03125,4.03125c2.28438,0 4.03125,-1.74688 4.03125,-4.03125v-5.375c0,-2.28437 -1.74687,-4.03125 -4.03125,-4.03125zM40.3125,106.15625c-2.28437,0 -4.03125,1.74688 -4.03125,4.03125v5.375c0,2.28437 1.74688,4.03125 4.03125,4.03125c2.28437,0 4.03125,-1.74688 4.03125,-4.03125v-5.375c0,-2.28437 -1.74688,-4.03125 -4.03125,-4.03125zM90.03125,106.15625c-2.28437,0 -4.03125,1.74688 -4.03125,4.03125v5.375c0,2.28437 1.74688,4.03125 4.03125,4.03125c2.28437,0 4.03125,-1.74688 4.03125,-4.03125v-5.375c0,-2.28437 -1.74688,-4.03125 -4.03125,-4.03125zM112.875,106.15625c-2.28437,0 -4.03125,1.74688 -4.03125,4.03125v5.375c0,2.28437 1.74688,4.03125 4.03125,4.03125c2.28437,0 4.03125,-1.74688 4.03125,-4.03125v-5.375c0,-2.28437 -1.74688,-4.03125 -4.03125,-4.03125zM135.71875,106.15625c-2.28438,0 -4.03125,1.74688 -4.03125,4.03125v5.375c0,2.28437 1.74687,4.03125 4.03125,4.03125c2.28438,0 4.03125,-1.74688 4.03125,-4.03125v-5.375c0,-2.28437 -1.74687,-4.03125 -4.03125,-4.03125zM36.28125,138.40625c-2.28437,0 -4.03125,1.74687 -4.03125,4.03125v24.1875c0,2.28438 1.74688,4.03125 4.03125,4.03125h8.0625c2.28438,0 4.03125,-1.74687 4.03125,-4.03125v-24.1875c0,-2.28438 -1.74687,-4.03125 -4.03125,-4.03125zM108.84375,138.40625c-2.28437,0 -4.03125,1.74687 -4.03125,4.03125v24.1875c0,2.28438 1.74688,4.03125 4.03125,4.03125h8.0625c2.28437,0 4.03125,-1.74687 4.03125,-4.03125v-24.1875c0,-2.28438 -1.74688,-4.03125 -4.03125,-4.03125z">
            </path>
        </g>
    </g>
</svg>