<svg xmlns="http://www.w3.org/2000/svg" x="0px" y="0px" width="64" height="64" viewBox="0 0 172 172"
    style=" fill:#000000;">
    <g fill="none" fill-rule="nonzero" stroke="none" stroke-width="1" stroke-linecap="butt" stroke-linejoin="miter"
        stroke-miterlimit="10" stroke-dasharray="" stroke-dashoffset="0" font-family="none" font-weight="none"
        font-size="none" text-anchor="none" style="mix-blend-mode: normal">
        <path d="M0,172v-172h172v172z" fill="none"></path>
        <g id="Layer_1">
            <path
                d="M153.1875,166.625h-134.375c-7.39062,0 -13.4375,-6.04687 -13.4375,-13.4375v-134.375c0,-7.39062 6.04688,-13.4375 13.4375,-13.4375h134.375c7.39063,0 13.4375,6.04688 13.4375,13.4375v134.375c0,7.39063 -6.04687,13.4375 -13.4375,13.4375z"
                fill="#ffffff"></path>
            <path
                d="M64.36562,116.6375c1.6125,1.47812 1.74688,4.03125 0.26875,5.64375c-0.80625,0.94062 -1.88125,1.34375 -2.95625,1.34375c-0.94063,0 -1.88125,-0.26875 -2.6875,-1.075l-16.25937,-14.78125c-0.80625,-0.80625 -1.34375,-1.88125 -1.34375,-2.95625c0,-1.075 0.5375,-2.28437 1.34375,-2.95625l16.25937,-14.91563c1.6125,-1.47812 4.16562,-1.34375 5.64375,0.26875c1.47812,1.6125 1.34375,4.16562 -0.26875,5.64375l-12.9,11.95937zM100.91563,76.45937l-22.17187,59.6625c-0.67187,1.74688 -2.41875,2.82188 -4.16563,2.55313c-0.40312,0 -0.67187,-0.13438 -1.075,-0.26875c-2.15,-0.80625 -3.09063,-3.09062 -2.41875,-5.24062l22.17188,-59.6625c0.80625,-2.15 3.09062,-3.09063 5.24063,-2.41875c2.15,0.94063 3.225,3.225 2.41875,5.375zM129.26875,107.76875l-16.25938,14.91563c-0.80625,0.67188 -1.74687,1.075 -2.6875,1.075c-1.075,0 -2.15,-0.40312 -2.95625,-1.34375c-1.47812,-1.6125 -1.34375,-4.16562 0.26875,-5.64375l12.9,-11.825l-12.9,-11.825c-1.6125,-1.47813 -1.74687,-4.03125 -0.26875,-5.64375c1.47812,-1.6125 4.03125,-1.74687 5.64375,-0.26875l16.25937,14.91562c0.80625,0.80625 1.34375,1.88125 1.34375,2.95625c0,1.075 -0.5375,2.01563 -1.34375,2.6875z"
                fill="#71c2ff"></path>
            <path
                d="M153.1875,170.65625h-134.375c-9.675,0 -17.46875,-7.79375 -17.46875,-17.46875v-98.09375c0,-2.28438 1.74687,-4.03125 4.03125,-4.03125c2.28437,0 4.03125,1.74687 4.03125,4.03125v98.09375c0,5.24062 4.16563,9.40625 9.40625,9.40625h134.375c5.24062,0 9.40625,-4.16563 9.40625,-9.40625v-134.375c0,-5.24062 -4.16563,-9.40625 -9.40625,-9.40625h-134.375c-5.24062,0 -9.40625,4.16563 -9.40625,9.40625v14.78125h139.75c2.28438,0 4.03125,1.74688 4.03125,4.03125c0,2.28437 -1.74687,4.03125 -4.03125,4.03125h-143.78125c-2.28438,0 -4.03125,-1.74688 -4.03125,-4.03125v-18.8125c0,-9.675 7.79375,-17.46875 17.46875,-17.46875h134.375c9.675,0 17.46875,7.79375 17.46875,17.46875v134.375c0,9.675 -7.79375,17.46875 -17.46875,17.46875z"
                fill="#444b54"></path>
            <circle cx="16" cy="16" transform="scale(1.34375,1.34375)" r="3" fill="#444b54"></circle>
            <circle cx="26" cy="16" transform="scale(1.34375,1.34375)" r="3" fill="#444b54"></circle>
            <circle cx="36" cy="16" transform="scale(1.34375,1.34375)" r="3" fill="#444b54"></circle>
        </g>
    </g>
</svg>