<svg xmlns="http://www.w3.org/2000/svg" x="0px" y="0px" width="64" height="64" viewBox="0 0 172 172"
    style=" fill:#000000;">
    <g fill="none" fill-rule="nonzero" stroke="none" stroke-width="1" stroke-linecap="butt" stroke-linejoin="miter"
        stroke-miterlimit="10" stroke-dasharray="" stroke-dashoffset="0" font-family="none" font-weight="none"
        font-size="none" text-anchor="none" style="mix-blend-mode: normal">
        <path d="M0,172v-172h172v172z" fill="none"></path>
        <g>
            <path
                d="M160.92414,146.85172v0.02016c0.00224,8.15258 -6.59844,14.76679 -14.75102,14.78125h-16.94469v-29.60617h16.8943c3.9195,-0.00678 7.68111,1.54402 10.45703,4.31112c2.77592,2.7671 4.33868,6.52375 4.34438,10.44326z"
                fill="#00efd1"></path>
            <path
                d="M128.50617,88.7043l0.05039,-45.76812h0.1075l18.33883,0.1243c7.75344,0 13.92125,6.3425 13.92125,14.09594v89.64492c-0.0057,-3.91951 -1.56846,-7.67616 -4.34438,-10.44326c-2.77592,-2.7671 -6.53752,-4.3179 -10.45703,-4.31112h-115.17617c-10.977,-0.00927 -19.87071,-8.91049 -19.8707,-19.8875v-0.06719c0,-0.46023 0.0168,-0.91375 0.05039,-1.36391c0.7259,-10.43064 9.40476,-18.5179 19.86063,-18.5068h9.50367v-49.86656h0.17805l19.5482,0.12766v65.10133h26.20313v-64.92664l18.89648,0.1243h0.06047l0.05039,45.92266l0.01008,7.98523c0,6.3675 5.16188,11.52937 11.52938,11.52937c6.3675,0 11.52937,-5.16188 11.52937,-11.52937z"
                fill="#00acea"></path>
            <path d="M116.96672,10.34688l11.60664,17.69047h-23.21328z" fill="#00efd1"></path>
            <path
                d="M128.57336,28.03734l-0.0168,14.89883l-0.05039,45.76813h-22.97812h-0.10078l-0.05039,-45.92266l-0.0168,-14.7443z"
                fill="#fedb41"></path>
            <path
                d="M128.50617,88.7043l-0.01008,7.98523c0,6.3675 -5.16188,11.52937 -11.52938,11.52937c-6.3675,0 -11.52937,-5.16188 -11.52937,-11.52937l-0.01008,-7.98523z"
                fill="#00efd1"></path>
            <path
                d="M60.2168,87.34375v-13.4375v-13.4375v-13.4375v-4.54859v-8.88891v-21.08008h26.20313v30.14367v64.92664h-26.20312z"
                fill="#fedb41"></path>
            <path
                d="M40.49055,42.355v49.86656h-9.50367c-10.45586,-0.0111 -19.13473,8.07616 -19.86062,18.5068l-0.05039,-0.00336v-71.92086c0,-10.97701 8.8937,-19.87823 19.8707,-19.8875h9.54398z"
                fill="#00efd1"></path>
            <path
                d="M147.01599,40.37297l-15.77159,-0.10683l0.01512,-12.22577c0.00097,-0.52509 -0.15191,-1.03896 -0.43974,-1.47813l-11.6063,-17.69047c-0.49679,-0.75706 -1.34142,-1.21305 -2.24692,-1.21305c-0.9055,0 -1.75013,0.45599 -2.24692,1.21305l-11.60664,17.69047c-0.28807,0.4391 -0.44118,0.95297 -0.44041,1.47813l-0.02855,12.0363l-13.62059,-0.08936v-27.47364c0.04543,-1.4839 -1.11967,-2.72417 -2.60352,-2.77148h-26.20312c-1.51688,0.03275 -2.73874,1.25461 -2.77148,2.77148v20.425c0,0.2103 -0.08398,0.42899 -0.08398,0.65575c0,0.22676 0.08398,0.44545 0.08398,0.65575v5.52752l-14.10937,-0.09339v-20.76766c-0.06555,-1.53455 -1.30987,-2.75536 -2.84539,-2.79164h-9.54634c-12.0914,0 -21.98845,9.74219 -22.52965,21.5h-0.01612v73.23438h0.03695c-0.02956,0.33594 -0.03695,0.77568 -0.03695,1.23289v0.06719c0.01019,12.44931 10.09882,22.53944 22.54813,22.55148h95.70188v26.94219c-0.02176,0.69437 0.24172,1.36737 0.72913,1.8624c0.48741,0.49503 1.15625,0.76891 1.85087,0.75791h16.94905c4.62163,0.00098 9.05423,-1.83459 12.32212,-5.10267c3.26789,-3.26808 5.1032,-7.70079 5.10195,-12.32241v-89.69195c0,-9.25441 -7.44572,-16.78344 -16.58557,-16.78344zM125.82069,86h-17.70794l-0.06215,-55.42969h17.83223zM125.81464,91.375l-0.00605,5.30345c0,4.88323 -3.95864,8.84188 -8.84187,8.84188c-4.88323,0 -8.84188,-3.95864 -8.84188,-8.84188l-0.00605,-5.30345zM116.96672,15.09132l6.62905,10.10399h-13.25811zM83.64844,15.11719v89.69531h-20.82812v-14.78125h2.6875c1.48427,0 2.6875,-1.20323 2.6875,-2.6875c0,-1.48427 -1.20323,-2.6875 -2.6875,-2.6875h-2.6875v-8.0625h2.6875c1.48427,0 2.6875,-1.20323 2.6875,-2.6875c0,-1.48427 -1.20323,-2.6875 -2.6875,-2.6875h-2.6875v-8.0625h2.6875c1.48427,0 2.6875,-1.20323 2.6875,-2.6875c0,-1.48427 -1.20323,-2.6875 -2.6875,-2.6875h-2.6875v-8.0625h2.6875c1.48427,0 2.6875,-1.20323 2.6875,-2.6875c0,-1.48427 -1.20323,-2.6875 -2.6875,-2.6875h-2.6875v-8.0625h2.6875c1.48427,0 2.6875,-1.20323 2.6875,-2.6875c0,-1.48427 -1.20323,-2.6875 -2.6875,-2.6875h-2.6875v-15.78906zM30.94656,21.5h7.01437v68.19531h-6.99321c-6.84741,0 -13.16304,2.93643 -17.19429,7.82734v-58.71852c0,-9.4768 7.69935,-17.30414 17.17313,-17.30414zM30.94891,129.33594c-9.49103,-0.01038 -17.17863,-7.70897 -17.17548,-17.2v-0.04367c0,-0.39036 0.00941,-0.70144 0.03897,-1.09986c0.65115,-8.98941 8.14507,-15.94353 17.15801,-15.92209h9.52013c1.54603,-0.06272 2.78449,-1.30265 2.84539,-2.84875v-47.1626l14.10938,0.09373v1.22281c0,0.2103 -0.08398,0.42899 -0.08398,0.65575c0,0.22676 0.08398,0.44545 0.08398,0.65575v12.12734c0,0.2103 -0.08398,0.42899 -0.08398,0.65575c0,0.22676 0.08398,0.44545 0.08398,0.65575v12.12734c0,0.2103 -0.08398,0.42899 -0.08398,0.65575c0,0.22676 0.08398,0.44545 0.08398,0.65575v12.12734c0,0.2103 -0.08398,0.42899 -0.08398,0.65575c0,0.22676 0.08398,0.44545 0.08398,0.65575v19.58516c0.04731,1.48384 1.28758,2.64894 2.77148,2.60352h26.20313c0.69521,0.01577 1.36663,-0.25345 1.85835,-0.74517c0.49172,-0.49172 0.76094,-1.16313 0.74517,-1.85835v-62.22604l13.62663,0.08936l0.07895,51.24021c0,7.85677 6.36917,14.22595 14.22595,14.22595c7.85677,0 14.22595,-6.36917 14.22595,-14.22595l0.05879,-51.05175l15.75748,0.10683c6.19435,0 11.22938,5.11801 11.22938,11.40844v77.07045c-3.35938,-3.13934 -7.53441,-4.89024 -12.07427,-4.89024zM158.22656,146.87187c-0.00214,3.19365 -1.27359,6.25548 -3.53436,8.51121c-2.26077,2.25573 -5.32543,3.52035 -8.51908,3.51535h-14.14969v-24.1875h14.12416c6.67073,0.01148 12.07379,5.41966 12.07897,12.09039z"
                fill="#083863"></path>
        </g>
    </g>
</svg>