<svg xmlns="http://www.w3.org/2000/svg" x="0px" y="0px" width="48" height="48" viewBox="0 0 172 172"
    style=" fill:#000000;">
    <g fill="none" fill-rule="nonzero" stroke="none" stroke-width="1" stroke-linecap="butt" stroke-linejoin="miter"
        stroke-miterlimit="10" stroke-dasharray="" stroke-dashoffset="0" font-family="none" font-weight="none"
        font-size="none" text-anchor="none" style="mix-blend-mode: normal">
        <path d="M0,172v-172h172v172z" fill="none"></path>
        <g>
            <path d="M10.75,35.83333h150.5v103.91667h-150.5z" fill="#1976d2"></path>
            <path
                d="M86,111.08333c-9.8951,0 -17.91667,8.02156 -17.91667,17.91667c0,9.8951 8.02156,17.91667 17.91667,17.91667c9.8951,0 17.91667,-8.02156 17.91667,-17.91667c0,-9.8951 -8.02156,-17.91667 -17.91667,-17.91667z"
                fill="#1976d2"></path>
            <path
                d="M86,118.25c-5.93706,0 -10.75,4.81294 -10.75,10.75c0,5.93706 4.81294,10.75 10.75,10.75c5.93706,0 10.75,-4.81294 10.75,-10.75c0,-5.93706 -4.81294,-10.75 -10.75,-10.75z"
                fill="#263238"></path>
            <path d="M143.33333,25.08333l-53.75,10.75h-7.16667l-53.75,-10.75l-7.16667,17.91667v86h129v-86z"
                fill="#cfd8dc"></path>
            <path
                d="M28.66667,118.25h53.75v10.75h7.16667v-10.75h53.75l7.16667,10.75h-129zM89.58333,35.83333h-7.16667v93.16667h7.16667z"
                fill="#b0bec5"></path>
            <path
                d="M143.33333,118.25c0,0 -53.75,0 -53.75,10.75c0,0 0,-82.41667 0,-93.16667c0,-10.75 53.75,-10.75 53.75,-10.75zM28.66667,118.25c0,0 53.75,0 53.75,10.75c0,0 0,-82.41667 0,-93.16667c0,-10.75 -53.75,-10.75 -53.75,-10.75z"
                fill="#eceff1"></path>
            <path
                d="M121.475,100.33333h-10.03333v-39.41667h10.03333zM121.83333,48.375c0,-2.86667 -2.50833,-5.375 -5.375,-5.375c-2.86667,0 -5.375,2.50833 -5.375,5.375c0,2.86667 2.50833,5.375 5.375,5.375c2.86667,0 5.375,-2.50833 5.375,-5.375"
                fill="#2196f3"></path>
        </g>
    </g>
</svg>