<svg xmlns="http://www.w3.org/2000/svg" x="0px" y="0px" width="64" height="64" viewBox="0 0 172 172"
    style=" fill:#000000;">
    <g fill="none" fill-rule="nonzero" stroke="none" stroke-width="1" stroke-linecap="butt" stroke-linejoin="miter"
        stroke-miterlimit="10" stroke-dasharray="" stroke-dashoffset="0" font-family="none" font-weight="none"
        font-size="none" text-anchor="none" style="mix-blend-mode: normal">
        <path d="M0,172v-172h172v172z" fill="none"></path>
        <g id="Layer_1">
            <path
                d="M166.49063,117.44375c-2.41875,-5.375 -9.00312,-7.525 -14.37812,-5.24063l-4.70312,2.01563l-0.94063,-1.88125c-2.28438,-5.50937 -8.6,-8.0625 -14.10937,-5.64375l-27.95,12.22812c-1.075,-1.74688 -2.6875,-3.09063 -4.70312,-4.03125l-34.66875,-15.5875c-13.4375,-6.04687 -29.15937,-4.16562 -40.85,4.8375l-5.24063,4.03125l-1.34375,1.34375v0h-12.22812c-2.28438,0 -4.03125,1.74688 -4.03125,4.03125v43h16.125v-6.9875l1.20938,-0.67187c4.43437,-2.55312 9.94375,-2.6875 14.5125,-0.40312l29.83125,14.91563c6.9875,3.35938 15.05,3.62812 22.30625,0.5375l75.7875,-31.98125c5.375,-2.41875 7.92812,-9.00313 5.375,-14.5125z"
                fill="#ffffff"></path>
            <path
                d="M170.3875,116.23438c-1.47812,-3.62812 -4.43437,-6.45 -8.0625,-7.92813c-3.62812,-1.47812 -7.65937,-1.47812 -11.2875,0.13437l-1.6125,0.67188c-3.7625,-6.31562 -11.55625,-9.00312 -18.54375,-6.04687l-15.5875,6.58438c-2.01562,0.80625 -2.95625,3.225 -2.15,5.24063c0.67188,1.47812 2.15,2.41875 3.7625,2.41875c0.5375,0 1.075,-0.13438 1.6125,-0.26875l15.5875,-6.58438c2.82188,-1.20938 5.9125,-0.26875 7.79375,1.88125l-31.57813,13.4375c0.40313,-6.04687 -2.82187,-11.95938 -8.73437,-14.5125l-34.9375,-15.5875c-14.78125,-6.58437 -31.98125,-4.56875 -44.88125,5.24063l-5.24063,4.03125c-0.13437,0.13437 -0.26875,0.26875 -0.40312,0.40313l-1.34375,1.34375c-0.80625,0.80625 -1.20937,1.74687 -1.20937,2.82187v43h-8.19688c-2.28438,0 -4.03125,1.74687 -4.03125,4.03125c0,2.28438 1.74687,4.03125 4.03125,4.03125h12.09375c2.28438,0 4.03125,-1.74687 4.03125,-4.03125v-45.41875l5.10625,-3.89687c10.61563,-8.0625 24.59063,-9.675 36.81875,-4.3l34.66875,15.5875c1.6125,0.67188 2.95625,2.01563 3.49375,3.7625c0.5375,1.74688 0.5375,3.49375 -0.13437,5.10625c-0.67187,1.6125 -2.01562,2.82187 -3.62812,3.49375c-1.6125,0.67188 -3.49375,0.5375 -5.10625,-0.13437l-26.875,-11.95938c-2.01562,-0.94063 -4.43437,0 -5.375,2.01563c-0.94063,2.01563 0,4.43437 2.01563,5.375l26.875,11.95938c3.62812,1.6125 7.65937,1.74687 11.2875,0.26875c0.5375,-0.13438 1.075,-0.40313 1.47812,-0.67187c0.26875,0 0.40313,-0.13438 0.5375,-0.13438l51.33125,-21.76875c1.6125,-0.67187 3.49375,-0.67187 5.10625,0c1.6125,0.67188 2.95625,2.01563 3.62813,3.62812c0.67188,1.6125 0.67188,3.49375 0,5.10625c-0.67187,1.6125 -2.01562,2.95625 -3.62813,3.62812l-75.7875,31.98125c-6.04687,2.55313 -13.03437,2.41875 -18.94688,-0.5375l-31.98125,-15.5875c-2.01562,-0.94062 -4.43437,-0.13437 -5.375,1.88125c-0.94062,2.01563 -0.13438,4.43437 1.88125,5.375l31.98125,15.5875c4.3,2.15 8.86875,3.09063 13.57188,3.09063c4.03125,0 8.19688,-0.80625 12.09375,-2.41875l75.7875,-31.98125c3.62813,-1.47812 6.45,-4.43437 7.92812,-8.0625c1.6125,-3.62813 1.6125,-7.65938 0.13437,-11.2875z"
                fill="#444b54"></path>
            <path
                d="M95.40625,1.34375c-17.06562,0 -29.5625,13.84063 -29.5625,30.90625c0,17.06563 13.84063,30.90625 30.90625,30.90625c17.06562,0 30.90625,-13.84062 30.90625,-30.90625c0,-17.06563 -15.18438,-30.90625 -32.25,-30.90625z"
                fill="#71c2ff"></path>
            <path
                d="M127.65625,32.25c0,-17.06562 -15.18438,-30.90625 -32.25,-30.90625l1.34375,61.8125c17.06562,0 30.90625,-13.84062 30.90625,-30.90625z"
                fill="#2298e0"></path>
            <path
                d="M96.75,12.09375c-11.15313,0 -20.15625,9.00313 -20.15625,20.15625c0,11.15312 9.00312,20.15625 20.15625,20.15625c11.15313,0 20.15625,-9.00313 20.15625,-20.15625c0,-11.15312 -9.00312,-20.15625 -20.15625,-20.15625z"
                fill="#71c2ff"></path>
        </g>
    </g>
</svg>