<svg width="740" height="927" xmlns="http://www.w3.org/2000/svg" xmlns:xlink="http://www.w3.org/1999/xlink" overflow="hidden"><defs><clipPath id="clip0"><rect x="79" y="-279" width="740" height="927"/></clipPath></defs><g clip-path="url(#clip0)" transform="translate(-79 279)"><path d="M577.997 420.997 549.646 420.997C541.596 420.997 539.99 411.185 539.99 411.185L539.99 346.105 503 346.105 503 316.003" stroke="#CFD9E0" stroke-width="2" stroke-linecap="round" stroke-linejoin="round" stroke-miterlimit="10" fill="none" fill-rule="evenodd"/><path d="M674.003 421 768 421" stroke="#CFD9E0" stroke-width="2" stroke-linecap="round" stroke-linejoin="round" stroke-miterlimit="10" fill="none" fill-rule="evenodd"/><path d="M590.802 390.003C583.737 390.003 578 397.494 578 406.74L578 433.252C578 442.497 583.737 449.997 590.802 449.997L661.198 449.997C668.274 449.997 674 442.497 674 433.252L674 406.74C674 397.494 668.274 390.003 661.198 390.003Z" stroke="#CFD9E0" stroke-width="2" stroke-miterlimit="1" fill="none" fill-rule="evenodd"/><path d="M366.997 252 322.003 252" stroke="#CFD9E0" stroke-width="2" stroke-linecap="round" stroke-linejoin="round" stroke-miterlimit="10" fill="none" fill-rule="evenodd"/><path d="M181.997 189 92.0026 189" stroke="#CFD9E0" stroke-width="2" stroke-linecap="round" stroke-linejoin="round" stroke-miterlimit="10" fill="none" fill-rule="evenodd"/><path d="M274 316 305.658 316C312.622 316 319.997 308.345 319.997 288.621L319.997 215.382C319.997 195.655 312.622 188.003 305.658 188.003L278.372 188.003" stroke="#CFD9E0" stroke-width="2" stroke-linecap="round" stroke-linejoin="round" stroke-miterlimit="10" fill="none" fill-rule="evenodd"/><path d="M92.0026 317 178 317" stroke="#CFD9E0" stroke-width="2" stroke-linecap="round" stroke-linejoin="round" stroke-miterlimit="10" fill="none" fill-rule="evenodd"/><path d="M190.794 281.003C183.729 281.003 178.003 288.493 178.003 297.74L178.003 324.26C178.003 333.507 183.729 340.997 190.794 340.997L261.195 340.997C268.264 340.997 273.997 333.507 273.997 324.26L273.997 297.74C273.997 288.493 268.264 281.003 261.195 281.003Z" stroke="#CFD9E0" stroke-width="2" stroke-miterlimit="1" fill="none" fill-rule="evenodd"/><path d="M194.805 163C187.737 163 182 170.617 182 180.017L182 206.972C182 216.372 187.729 223.997 194.805 223.997L265.198 223.997C272.263 223.997 278 216.372 278 206.972L278 180.017C278 170.617 272.263 163 265.198 163Z" stroke="#CFD9E0" stroke-width="2" stroke-miterlimit="1" fill="none" fill-rule="evenodd"/><path d="M530.003 252 575.997 252" stroke="#CFD9E0" stroke-width="2" stroke-linecap="round" stroke-linejoin="round" stroke-miterlimit="10" fill="none" fill-rule="evenodd"/><path d="M720.003 189 804 189" stroke="#CFD9E0" stroke-width="2" stroke-linecap="round" stroke-linejoin="round" stroke-miterlimit="10" fill="none" fill-rule="evenodd"/><path d="M624 316 590.498 316C583.446 316 576 308.345 576 288.621L576 215.382C576 195.655 583.446 188.003 590.498 188.003L624 188.003" stroke="#CFD9E0" stroke-width="2" stroke-linecap="round" stroke-linejoin="round" stroke-miterlimit="10" fill="none" fill-rule="evenodd"/><path d="M804 317 720.003 317" stroke="#CFD9E0" stroke-width="2" stroke-linecap="round" stroke-linejoin="round" stroke-miterlimit="10" fill="none" fill-rule="evenodd"/><path d="M636.673 163C629.67 163 624.003 170.617 624.003 180.017L624.003 206.972C624.003 216.372 629.67 223.997 636.673 223.997L706.338 223.997C713.333 223.997 719 216.372 719 206.972L719 180.017C719 170.617 713.333 163 706.338 163Z" stroke="#CFD9E0" stroke-width="2" stroke-miterlimit="1" fill="none" fill-rule="evenodd"/><path d="M636.805 281.003C629.739 281.003 624.003 288.493 624.003 297.74L624.003 324.26C624.003 333.507 629.739 340.997 636.805 340.997L707.195 340.997C714.264 340.997 720 333.507 720 324.26L720 297.74C720 288.493 714.264 281.003 707.195 281.003Z" stroke="#CFD9E0" stroke-width="2" stroke-miterlimit="1" fill="none" fill-rule="evenodd"/><path d="M531 250.999C531 300.151 494.511 340 449.506 340 404.489 340 368.003 300.151 368.003 250.999 368.003 201.849 404.489 162 449.506 162 494.511 162 531 201.849 531 250.999Z" stroke="#CFD9E0" stroke-width="2" stroke-miterlimit="1" fill="none" fill-rule="evenodd"/><path d="M315.003 78.0028 347.662 78.0028C355.651 78.0028 357.253 87.8141 357.253 87.8141L357.253 152.889 394 152.889 394 188" stroke="#CFD9E0" stroke-width="2" stroke-linecap="round" stroke-linejoin="round" stroke-miterlimit="10" fill="none" fill-rule="evenodd"/><path d="M220 79 125.003 79" stroke="#CFD9E0" stroke-width="2" stroke-linecap="round" stroke-linejoin="round" stroke-miterlimit="10" fill="none" fill-rule="evenodd"/><path d="M232.671 49.0028C225.679 49.0028 220.003 56.5028 220.003 65.7484L220.003 92.26C220.003 101.506 225.679 108.997 232.671 108.997L302.339 108.997C309.331 108.997 315 101.506 315 92.26L315 65.7484C315 56.5028 309.331 49.0028 302.339 49.0028Z" stroke="#CFD9E0" stroke-width="2" stroke-miterlimit="1" fill="none" fill-rule="evenodd"/><path d="M315 420.997 347.628 420.997C355.633 420.997 357.237 411.228 357.237 411.228L357.237 346.434 394 346.434 394 324.003" stroke="#CFD9E0" stroke-width="2" stroke-linecap="round" stroke-linejoin="round" stroke-miterlimit="10" fill="none" fill-rule="evenodd"/><path d="M220 421 125.003 421" stroke="#CFD9E0" stroke-width="2" stroke-linecap="round" stroke-linejoin="round" stroke-miterlimit="10" fill="none" fill-rule="evenodd"/><path d="M232.671 390.003C225.679 390.003 220.003 397.494 220.003 406.74L220.003 433.252C220.003 442.497 225.679 449.997 232.671 449.997L302.339 449.997C309.331 449.997 315 442.497 315 433.252L315 406.74C315 397.494 309.331 390.003 302.339 390.003Z" stroke="#CFD9E0" stroke-width="2" stroke-miterlimit="1" fill="none" fill-rule="evenodd"/><path d="M581.997 78.0028 552.63 78.0028C544.583 78.0028 542.97 87.8141 542.97 87.8141L542.97 152.889 506 152.889 506 188" stroke="#CFD9E0" stroke-width="2" stroke-linecap="round" stroke-linejoin="round" stroke-miterlimit="10" fill="none" fill-rule="evenodd"/><path d="M678.003 79 768 79" stroke="#CFD9E0" stroke-width="2" stroke-linecap="round" stroke-linejoin="round" stroke-miterlimit="10" fill="none" fill-rule="evenodd"/><path d="M594.795 49.0028C587.726 49.0028 582 56.5028 582 65.7484L582 92.26C582 101.506 587.726 108.997 594.802 108.997L665.198 108.997C672.263 108.997 678 101.506 678 92.26L678 65.7484C678 56.5028 672.263 49.0028 665.198 49.0028Z" stroke="#CFD9E0" stroke-width="2" stroke-miterlimit="1" fill="none" fill-rule="evenodd"/><path d="M445.737 187.667C445.605 186.695 445.389 185.731 445.077 184.807 444.081 181.896 442.113 180.003 438.509 180.003 434.341 180.003 432.376 182.565 431.548 186.262 422.675 184.725 414.648 192.238 414.704 202.025 414.704 202.467 414.733 202.896 414.769 203.318 408.493 200.528 401.276 202.354 396.78 207.877 392.282 213.401 391.464 221.416 394.748 227.872 390.399 231.642 388 237.463 388.31 243.512 388.622 249.546 391.596 255.05 396.3 258.269 389.929 266.846 392.403 279.626 401.418 284.677 401.343 285.323 401.315 285.97 401.315 286.627 401.315 294.712 406.378 301.486 413.237 303.452 415.795 311.428 423.642 315.833 431.096 313.476 431.424 318.887 433.204 322.997 438.509 322.997 445.99 322.997 445.879 315.946 445.99 315.977 446 315.977 445.822 187.647 445.737 187.667Z" stroke="#E4E9ED" stroke-width="2" stroke-miterlimit="1" fill="none" fill-rule="evenodd"/><path d="M446 219.003C446 219.003 422 220.567 428.722 250.997" stroke="#FFFFFF" stroke-width="2" stroke-linecap="round" stroke-linejoin="round" stroke-miterlimit="10" fill="none" fill-rule="evenodd"/><path d="M431.003 204.056C431.003 204.056 445.997 199 445.997 215" stroke="#FFFFFF" stroke-width="2" stroke-linecap="round" stroke-linejoin="round" stroke-miterlimit="10" fill="none" fill-rule="evenodd"/><path d="M415.003 202.003C415.003 202.003 415.003 209.38 419.997 215" stroke="#FFFFFF" stroke-width="2" stroke-linecap="round" stroke-linejoin="round" stroke-miterlimit="10" fill="none" fill-rule="evenodd"/><path d="M395.003 227.757C403.564 220 411.858 230 411.858 230 411.858 230 413.602 221.127 424.997 224.815" stroke="#FFFFFF" stroke-width="2" stroke-linecap="round" stroke-linejoin="round" stroke-miterlimit="10" fill="none" fill-rule="evenodd"/><path d="M402.057 287C402.057 287 402 270.494 413.454 272.111 413.454 272.111 407.505 263.057 418 254.003" stroke="#FFFFFF" stroke-width="2" stroke-linecap="round" stroke-linejoin="round" stroke-miterlimit="10" fill="none" fill-rule="evenodd"/><path d="M417 287.003C417 287.003 410 295.287 414.595 307" stroke="#FFFFFF" stroke-width="2" stroke-linecap="round" stroke-linejoin="round" stroke-miterlimit="10" fill="none" fill-rule="evenodd"/><path d="M445.997 286.493C434.929 285.003 430.192 296.915 430.192 296.915 430.192 296.915 427.252 295.49 425 299" stroke="#FFFFFF" stroke-width="2" stroke-linecap="round" stroke-linejoin="round" stroke-miterlimit="10" fill="none" fill-rule="evenodd"/><path d="M427.997 240.003C427.997 240.003 417.133 252 410.003 240.003" stroke="#FFFFFF" stroke-width="2" stroke-linecap="round" stroke-linejoin="round" stroke-miterlimit="10" fill="none" fill-rule="evenodd"/><path d="M428 263.902C428 263.902 439.218 261.003 445.997 269.997" stroke="#FFFFFF" stroke-width="2" stroke-linecap="round" stroke-linejoin="round" stroke-miterlimit="10" fill="none" fill-rule="evenodd"/><path d="M452 219.003C452 219.003 474.997 220.567 468.563 250.997" stroke="#40566D" stroke-width="2" stroke-miterlimit="1" fill="none" fill-rule="evenodd"/><path d="M467 204.056C467 204.056 452 199 452 215" stroke="#40566D" stroke-width="2" stroke-miterlimit="1" fill="none" fill-rule="evenodd"/><path d="M483 202.003C483 202.003 483 209.38 478.003 215" stroke="#40566D" stroke-width="2" stroke-miterlimit="1" fill="none" fill-rule="evenodd"/><path d="M495.943 287C495.943 287 495.997 270.494 484.558 272.111 484.558 272.111 490.493 263.057 480.003 254.003" stroke="#40566D" stroke-width="2" stroke-miterlimit="1" fill="none" fill-rule="evenodd"/><path d="M480 287.003C480 287.003 486.997 295.287 482.4 307" stroke="#40566D" stroke-width="2" stroke-miterlimit="1" fill="none" fill-rule="evenodd"/><path d="M452 286.493C462.537 285.003 467.05 296.915 467.05 296.915 467.05 296.915 469.849 295.49 472 299" stroke="#40566D" stroke-width="2" stroke-miterlimit="1" fill="none" fill-rule="evenodd"/><path d="M470.003 240.003C470.003 240.003 480.857 252 487.997 240.003" stroke="#40566D" stroke-width="2" stroke-miterlimit="1" fill="none" fill-rule="evenodd"/><path d="M470 263.902C470 263.902 458.787 261.003 452 269.997" stroke="#40566D" stroke-width="2" stroke-miterlimit="1" fill="none" fill-rule="evenodd"/><path d="M503 227.757C494.158 220 485.584 230 485.584 230 485.584 230 483.771 221.127 472.003 224.815" stroke="#40566D" stroke-width="2" stroke-miterlimit="1" fill="none" fill-rule="evenodd"/><path d="M452.255 187.667C452.387 186.695 452.611 185.731 452.913 184.807 453.919 181.896 455.877 180.003 459.481 180.003 463.65 180.003 465.626 182.565 466.446 186.262 475.321 184.725 483.346 192.238 483.292 202.025 483.292 202.467 483.264 202.896 483.235 203.318 489.512 200.528 496.72 202.354 501.226 207.877 505.725 213.401 506.535 221.416 503.251 227.872 507.598 231.633 509.997 237.463 509.688 243.5 509.378 249.546 506.404 255.05 501.698 258.269 504.73 262.337 505.906 267.667 504.915 272.791 503.92 277.915 500.86 282.281 496.588 284.669 496.655 285.315 496.683 285.97 496.691 286.616 496.683 294.527 491.779 301.435 484.76 303.444 482.209 311.428 474.351 315.833 466.906 313.465 466.568 318.879 464.79 322.997 459.481 322.997 452 322.997 452.103 315.946 452 315.977 452 315.977 452.178 187.647 452.255 187.667Z" stroke="#40566D" stroke-width="2" stroke-miterlimit="1" fill="none" fill-rule="evenodd"/><path d="M774.783 413C772.904 413 771.06 413.76 769.685 415.195 767.62 417.345 767 420.566 768.122 423.366 769.232 426.169 771.869 428 774.78 428 778.762 428 781.989 424.633 781.997 420.504 781.989 417.466 780.24 414.735 777.544 413.569 776.651 413.188 775.713 413 774.783 413Z" stroke="#111B85" stroke-width="2" stroke-linejoin="round" stroke-miterlimit="10" fill="#213B55" fill-rule="evenodd"/><path d="M504.267 309.003C501.547 309.003 499.085 310.834 498.047 313.635 497 316.428 497.579 319.662 499.508 321.799 500.792 323.237 502.514 324 504.267 324 505.138 324 506.014 323.812 506.848 323.425 509.363 322.27 511 319.538 511 316.501 511 312.357 507.986 309.003 504.267 309.003Z" stroke="#111B85" stroke-width="2" stroke-linejoin="round" stroke-miterlimit="10" fill="#CFD9E0" fill-rule="evenodd"/><path d="M320.266 243.003C317.539 243.003 315.087 244.823 314.04 247.624 313.003 250.428 313.571 253.651 315.5 255.799 316.789 257.234 318.511 258 320.261 258 321.129 258 322.003 257.812 322.839 257.425 325.354 256.27 326.997 253.538 326.997 250.499 326.997 246.357 323.987 243.003 320.266 243.003Z" stroke="#111B85" stroke-width="2" stroke-linejoin="round" stroke-miterlimit="10" fill="#CFD9E0" fill-rule="evenodd"/><path d="M87.214 307C83.2293 307 80 310.356 80 314.497 80 317.536 81.7617 320.267 84.4595 321.431 85.3498 321.815 86.2833 322 87.2113 322 89.089 322 90.937 321.237 92.321 319.805 94.3795 317.657 94.9973 314.427 93.8858 311.635 92.7635 308.831 90.1358 307 87.214 307Z" stroke="#111B85" stroke-width="2" stroke-linejoin="round" stroke-miterlimit="10" fill="#667E92" fill-rule="evenodd"/><path d="M87.214 181.003C83.2293 181.003 80 184.356 80 188.5 80 191.536 81.7617 194.267 84.4595 195.422 85.3525 195.809 86.2887 195.997 87.2194 195.997 89.0944 195.997 90.9398 195.235 92.321 193.796 94.3795 191.66 94.9973 188.427 93.8858 185.626 92.7635 182.822 90.1358 181.003 87.214 181.003Z" stroke="#111B85" stroke-width="2" stroke-linejoin="round" stroke-miterlimit="10" fill="#E6EBEF" fill-rule="evenodd"/><path d="M575.775 243.003C572.862 243.003 570.234 244.823 569.112 247.624 568 250.428 568.61 253.651 570.679 255.799 572.052 257.234 573.9 258 575.778 258 576.709 258 577.647 257.812 578.54 257.425 581.238 256.27 582.989 253.538 583 250.499 583 246.357 579.763 243.003 575.775 243.003Z" stroke="#111B85" stroke-width="2" stroke-linejoin="round" stroke-miterlimit="10" fill="#CFD9E0" fill-rule="evenodd"/><path d="M119.999 71C116.133 71 113 74.3567 113 78.4986 113 82.6433 116.133 85.9972 119.999 85.9972 123.867 85.9972 126.997 82.6433 126.997 78.4986 126.997 74.3567 123.867 71 119.999 71Z" stroke="#111B85" stroke-width="2" stroke-linejoin="round" stroke-miterlimit="10" fill="#E3E9ED" fill-rule="evenodd"/><path d="M394.27 180C391.546 180 389.096 181.831 388.049 184.634 387.003 187.434 387.581 190.655 389.508 192.802 390.796 194.24 392.517 194.997 394.265 194.997 395.133 194.997 396.006 194.812 396.842 194.428 399.355 193.262 400.997 190.532 400.997 187.507 400.997 183.364 397.979 180 394.27 180Z" stroke="#111B85" stroke-width="2" stroke-linejoin="round" stroke-miterlimit="10" fill="#CFD9E0" fill-rule="evenodd"/><path d="M394.27 309.003C391.546 309.003 389.096 310.833 388.049 313.634 387.003 316.437 387.581 319.658 389.508 321.805 390.799 323.235 392.522 323.997 394.273 323.997 395.138 323.997 396.009 323.812 396.842 323.431 399.355 322.265 400.997 319.534 400.997 316.499 400.997 312.355 397.979 309.003 394.27 309.003Z" stroke="#111B85" stroke-width="2" stroke-linejoin="round" stroke-miterlimit="10" fill="#CFD9E0" fill-rule="evenodd"/><path d="M119.733 413C118.862 413 117.986 413.188 117.152 413.569 114.637 414.735 113 417.466 113 420.504 113 424.633 116.014 428 119.733 428 122.453 428 124.915 426.169 125.953 423.366 127 420.566 126.421 417.345 124.502 415.195 123.21 413.76 121.486 413 119.733 413Z" stroke="#111B85" stroke-width="2" stroke-linejoin="round" stroke-miterlimit="10" fill="#E4E9ED" fill-rule="evenodd"/><path d="M774.78 71C771.869 71 769.232 72.8228 768.122 75.6242 767 78.4285 767.62 81.6618 769.685 83.7987 771.06 85.2344 772.904 86 774.783 86 775.713 86 776.651 85.8121 777.544 85.4251 780.24 84.2698 781.989 81.5384 781.997 78.4986 781.989 74.3567 778.762 71 774.78 71Z" stroke="#111B85" stroke-width="2" stroke-linejoin="round" stroke-miterlimit="10" fill="#A5B7C5" fill-rule="evenodd"/><path d="M505.786 180C502.872 180 500.234 181.831 499.122 184.635 498 187.436 498.621 190.657 500.687 192.805 502.066 194.237 503.914 195 505.797 195 506.725 195 507.661 194.812 508.551 194.431 511.246 193.264 513 190.534 513 187.508 513 183.364 509.771 180 505.786 180Z" stroke="#111B85" stroke-width="2" stroke-linejoin="round" stroke-miterlimit="10" fill="#CFD9E0" fill-rule="evenodd"/><path d="M810.267 179C807.547 179 805.085 180.831 804.047 183.634 803 186.434 803.579 189.655 805.5 191.802 806.79 193.24 808.514 194 810.269 194 811.138 194 812.014 193.812 812.848 193.431 815.363 192.265 817 189.534 817 186.507 817 182.364 813.986 179 810.267 179Z" stroke="#111B85" stroke-width="2" stroke-linejoin="round" stroke-miterlimit="10" fill="#445D73" fill-rule="evenodd"/><path d="M810.267 307C807.547 307 805.085 308.823 804.047 311.624 803 314.428 803.579 317.662 805.5 319.799 806.79 321.234 808.514 322 810.269 322 811.138 322 812.014 321.812 812.848 321.425 815.363 320.27 817 317.538 817 314.499 817 310.357 813.986 307 810.267 307Z" stroke="#111B85" stroke-width="2" stroke-linejoin="round" stroke-miterlimit="10" fill="#869FB1" fill-rule="evenodd"/></g></svg>