<svg xmlns="http://www.w3.org/2000/svg" x="0px" y="0px" width="48" height="48" viewBox="0 0 172 172"
    style=" fill:#000000;">
    <g fill="none" fill-rule="nonzero" stroke="none" stroke-width="1" stroke-linecap="butt" stroke-linejoin="miter"
        stroke-miterlimit="10" stroke-dasharray="" stroke-dashoffset="0" font-family="none" font-weight="none"
        font-size="none" text-anchor="none" style="mix-blend-mode: normal">
        <path d="M0,172v-172h172v172z" fill="none"></path>
        <g>
            <path
                d="M109.50667,145.34c-2.11417,2.11417 -10.6425,3.69083 -12.75667,1.57667l-8.95833,-15.695l-17.70167,17.70167c-1.00633,1.00936 -2.37303,1.57666 -3.79833,1.57666c-1.42531,0 -2.792,-0.56731 -3.79833,-1.57666c-1.01468,-1.00349 -1.58568,-2.37125 -1.58568,-3.79833c0,-1.42709 0.57099,-2.79484 1.58568,-3.79833l21.5,-21.5c1.00349,-1.01468 2.37125,-1.58568 3.79833,-1.58568c1.42709,0 2.79484,0.57099 3.79833,1.58568l9.03,9.03l1.11083,1.11083l7.77583,7.77583c1.01468,1.00349 1.58568,2.37125 1.58568,3.79833c0,1.42709 -0.57099,2.79484 -1.58568,3.79833z"
                fill="#607d8b"></path>
            <path
                d="M64.07,139.75l-1.57667,1.57667c-1.01468,1.00349 -1.58568,2.37125 -1.58568,3.79833c0,1.42709 0.57099,2.79484 1.58568,3.79833c1.00633,1.00936 2.37303,1.57666 3.79833,1.57666c1.42531,0 2.792,-0.56731 3.79833,-1.57666l9.17333,-9.17333z"
                fill="#455a64"></path>
            <path
                d="M109.50667,145.34c-1.00354,1.01459 -2.37128,1.58551 -3.79833,1.58551c-1.42705,0 -2.79479,-0.57093 -3.79833,-1.58551l-6.95167,-2.00667l6.7725,-13.36583l7.77583,7.77583c1.01468,1.00349 1.58568,2.37125 1.58568,3.79833c0,1.42709 -0.57099,2.79484 -1.58568,3.79833z"
                fill="#455a64"></path>
            <path
                d="M133.48275,111.08509c-0.41599,-0.00053 -0.83051,-0.04927 -1.23528,-0.14523l-45.6875,-10.75c-2.88929,-0.68029 -4.68004,-3.574 -3.99975,-6.46329c0.68029,-2.88929 3.574,-4.68004 6.46329,-3.99975l45.6875,10.75c2.65513,0.62579 4.42066,3.14098 4.10691,5.85076c-0.31375,2.70978 -2.60729,4.755 -5.33517,4.75752z"
                fill="#455a64"></path>
            <path
                d="M141.54167,96.75c6.92657,0 12.54167,-5.6151 12.54167,-12.54167c0,-6.92657 -5.6151,-12.54167 -12.54167,-12.54167c-6.92657,0 -12.54167,5.6151 -12.54167,12.54167c0.00758,6.92343 5.61824,12.53408 12.54167,12.54167z"
                fill="#ffb74d"></path>
            <path
                d="M51.95833,46.58333c6.92657,0 12.54167,-5.6151 12.54167,-12.54167c0,-6.92657 -5.6151,-12.54167 -12.54167,-12.54167c-6.92657,0 -12.54167,5.6151 -12.54167,12.54167c0.00758,6.92343 5.61824,12.53408 12.54167,12.54167z"
                fill="#ffb74d"></path>
            <path
                d="M141.7925,116.60167l-1.11083,1.86333l-4.73,7.88333l-0.78833,1.32583l-4.15667,6.91583l-8.9225,14.26167c-1.96659,3.30046 -5.54693,5.29848 -9.38842,5.23923c-3.84149,-0.05924 -7.35851,-2.16672 -9.22239,-5.52626c-1.86388,-3.35954 -1.79048,-7.45898 0.19247,-10.74965l19.70833,-32.25c3.05494,-5.06961 9.63665,-6.71036 14.71382,-3.66801c5.07717,3.04235 6.73426,9.61996 3.70451,14.70467z"
                fill="#607d8b"></path>
            <path
                d="M112.55881,154.08333h-53.11761c-1.99361,0.11399 -3.88655,-0.88482 -4.91773,-2.59484c-1.03118,-1.71002 -1.03118,-3.85031 0,-5.56033c1.03118,-1.71002 2.92412,-2.70883 4.91773,-2.59484h53.11761c1.99361,-0.11399 3.88655,0.88482 4.91773,2.59484c1.03118,1.71002 1.03118,3.85031 0,5.56033c-1.03118,1.71002 -2.92412,2.70883 -4.91773,2.59484z"
                fill="#607d8b"></path>
            <path
                d="M47.90917,62.20667l-2.32917,7.77583l-3.5475,11.75333l-4.87333,16.30417c-1.35982,4.54579 -5.53935,7.66224 -10.28417,7.66833c-1.04481,0.00061 -2.08372,-0.15643 -3.08167,-0.46583c-2.73423,-0.80724 -5.03288,-2.67296 -6.3853,-5.18266c-1.35242,-2.50971 -1.6466,-5.45558 -0.8172,-8.18317l10.75,-35.83333c1.70196,-5.67979 7.68604,-8.90446 13.36583,-7.2025c5.67979,1.70196 8.90446,7.68604 7.2025,13.36583z"
                fill="#607d8b"></path>
            <path
                d="M37.625,96.98496l-1.79167,51.89383c-0.09357,2.90108 -2.47242,5.20443 -5.375,5.20443c-2.90258,0 -5.28143,-2.30336 -5.375,-5.20443l-1.79167,-51.89383c-0.12765,-3.95804 2.9775,-7.27014 6.93554,-7.39779c3.95804,-0.12765 7.27014,2.9775 7.39779,6.93554c0.0048,0.14813 0.00416,0.31594 0,0.46225z"
                fill="#607d8b"></path>
            <path d="M45.58,69.9825l-3.5475,11.75333l-1.72,-19.92333z" fill="#455a64"></path>
            <path
                d="M69.87142,93.16667c-1.21995,0.00031 -2.40361,-0.41501 -3.3559,-1.17752l-17.91667,-14.33333c-0.55097,-0.44259 -1.00985,-0.98887 -1.3507,-1.60795l-9.85417,-17.91667c-1.43016,-2.60132 -0.48074,-5.86949 2.12058,-7.29964c2.60132,-1.43016 5.86949,-0.48074 7.29964,2.12058l9.33627,16.97712l17.08379,13.66493c1.78161,1.42735 2.46761,3.82417 1.71096,5.978c-0.75665,2.15383 -2.79094,3.595 -5.07381,3.59448z"
                fill="#607d8b"></path>
            <path d="M140.68167,118.465l-4.73,7.88333l-0.78833,1.32583l-0.78833,-13.90333z" fill="#455a64"></path>
            <path
                d="M152.28468,154.08509c-2.59485,-0.00435 -4.81632,-1.86146 -5.28054,-4.41445l-3.42233,-18.81608l-11.19792,-19.81333c-0.95102,-1.67194 -0.93609,-3.72463 0.03916,-5.38255c0.97525,-1.65792 2.76212,-2.6683 4.68551,-2.6494c1.9234,0.0189 3.69007,1.06418 4.63256,2.74094l11.64583,20.60417c0.29723,0.52235 0.50316,1.09158 0.60892,1.6832l3.58333,19.70833c0.28184,1.56888 -0.14566,3.18203 -1.16749,4.40542c-1.02183,1.2234 -2.53303,1.93139 -4.12703,1.93349z"
                fill="#607d8b"></path>
        </g>
    </g>
</svg>