<svg xmlns="http://www.w3.org/2000/svg" x="0px" y="0px" width="80" height="80" viewBox="0 0 172 172"
    style=" fill:#000000;">
    <g fill="none" fill-rule="nonzero" stroke="none" stroke-width="1" stroke-linecap="butt" stroke-linejoin="miter"
        stroke-miterlimit="10" stroke-dasharray="" stroke-dashoffset="0" font-family="none" font-weight="none"
        font-size="none" text-anchor="none" style="mix-blend-mode: normal">
        <path d="M0,172v-172h172v172z" fill="none"></path>
        <g>
            <path
                d="M86,18.275c-6.53077,0 -11.825,5.29423 -11.825,11.825c0,6.53077 5.29423,11.825 11.825,11.825c6.53077,0 11.825,-5.29423 11.825,-11.825c0,-6.53077 -5.29423,-11.825 -11.825,-11.825z"
                fill="#ffeea3"></path>
            <path
                d="M86,19.35c5.92755,0 10.75,4.82245 10.75,10.75c0,5.92755 -4.82245,10.75 -10.75,10.75c-5.92755,0 -10.75,-4.82245 -10.75,-10.75c0,-5.92755 4.82245,-10.75 10.75,-10.75M86,17.2c-7.1251,0 -12.9,5.7749 -12.9,12.9c0,7.1251 5.7749,12.9 12.9,12.9c7.1251,0 12.9,-5.7749 12.9,-12.9c0,-7.1251 -5.7749,-12.9 -12.9,-12.9z"
                fill="#ba9b48"></path>
            <path
                d="M21.5,31.175c-6.53077,0 -11.825,5.29423 -11.825,11.825c0,6.53077 5.29423,11.825 11.825,11.825c6.53077,0 11.825,-5.29423 11.825,-11.825c0,-6.53077 -5.29423,-11.825 -11.825,-11.825z"
                fill="#ffeea3"></path>
            <path
                d="M21.5,32.25c5.92755,0 10.75,4.82245 10.75,10.75c0,5.92755 -4.82245,10.75 -10.75,10.75c-5.92755,0 -10.75,-4.82245 -10.75,-10.75c0,-5.92755 4.82245,-10.75 10.75,-10.75M21.5,30.1c-7.1251,0 -12.9,5.7749 -12.9,12.9c0,7.1251 5.7749,12.9 12.9,12.9c7.1251,0 12.9,-5.7749 12.9,-12.9c0,-7.1251 -5.7749,-12.9 -12.9,-12.9z"
                fill="#ba9b48"></path>
            <path
                d="M150.5,31.175c-6.53077,0 -11.825,5.29423 -11.825,11.825c0,6.53077 5.29423,11.825 11.825,11.825c6.53077,0 11.825,-5.29423 11.825,-11.825c0,-6.53077 -5.29423,-11.825 -11.825,-11.825z"
                fill="#ffeea3"></path>
            <path
                d="M150.5,32.25c5.92755,0 10.75,4.82245 10.75,10.75c0,5.92755 -4.82245,10.75 -10.75,10.75c-5.92755,0 -10.75,-4.82245 -10.75,-10.75c0,-5.92755 4.82245,-10.75 10.75,-10.75M150.5,30.1c-7.1251,0 -12.9,5.7749 -12.9,12.9c0,7.1251 5.7749,12.9 12.9,12.9c7.1251,0 12.9,-5.7749 12.9,-12.9c0,-7.1251 -5.7749,-12.9 -12.9,-12.9z"
                fill="#ba9b48"></path>
            <path
                d="M65.575,89.225v-20.425c0,-11.2617 9.1633,-20.425 20.425,-20.425c11.2617,0 20.425,9.1633 20.425,20.425v20.425z"
                fill="#c2e8ff"></path>
            <path
                d="M86,49.45c10.67045,0 19.35,8.67955 19.35,19.35v19.35h-38.7v-19.35c0,-10.67045 8.67955,-19.35 19.35,-19.35M86,47.3c-11.87445,0 -21.5,9.62555 -21.5,21.5v21.5h43v-21.5c0,-11.87445 -9.62555,-21.5 -21.5,-21.5z"
                fill="#7496c4"></path>
            <path
                d="M47.3,88.15h77.4v2.15h-77.4zM32.25,129h-9.675c-12.4485,0 -22.575,-10.1265 -22.575,-22.575v-29.025h2.15v29.025c0,11.2617 9.1633,20.425 20.425,20.425h9.675zM149.425,129h-9.675v-2.15h9.675c11.2617,0 20.425,-9.1633 20.425,-20.425v-29.025h2.15v29.025c0,12.4485 -10.1265,22.575 -22.575,22.575z"
                fill="#66798f"></path>
            <g>
                <path
                    d="M49.45,153.725c-0.32895,0 -0.66435,-0.0172 -1.0019,-0.04945c-4.8633,-0.4859 -8.6731,-4.9837 -8.6731,-10.2383v-24.11225h-13.975c-8.8924,0 -16.125,-7.2326 -16.125,-16.125v-30.1c0,-6.52095 5.3062,-11.825 11.825,-11.825c6.5188,0 11.825,5.30405 11.825,11.825v26.875h13.975c6.5188,0 11.825,5.30405 11.825,11.825v32.25c0,2.5843 -1.0062,5.0138 -2.83155,6.8413c-1.82965,1.8275 -4.257,2.8337 -6.84345,2.8337c0.00215,0 0.00215,0 0,0z"
                    fill="#8bb7f0"></path>
                <path
                    d="M21.5,62.35c5.92755,0 10.75,4.82245 10.75,10.75v25.8v2.15h2.15h12.9c5.92755,0 10.75,4.82245 10.75,10.75v32.25c0,4.7429 -3.8571,8.6 -8.6,8.6c-0.29455,0 -0.5934,-0.01505 -0.8944,-0.04515c-4.3215,-0.43215 -7.7056,-4.4591 -7.7056,-9.1676v-23.03725v-2.15h-2.15h-12.9c-8.299,0 -15.05,-6.751 -15.05,-15.05v-30.1c0,-5.92755 4.82245,-10.75 10.75,-10.75M21.5,60.2c-7.1251,0 -12.9,5.7749 -12.9,12.9v30.1c0,9.4987 7.7013,17.2 17.2,17.2h12.9v23.03725c0,5.62225 4.0463,10.74785 9.64275,11.30685c0.37195,0.0387 0.74175,0.0559 1.10725,0.0559c5.93615,0 10.75,-4.81385 10.75,-10.75v-32.25c0,-7.1251 -5.7749,-12.9 -12.9,-12.9h-12.9c0,0 0,-25.53985 0,-25.8c0,-7.1251 -5.7749,-12.9 -12.9,-12.9z"
                    fill="#4e7ab5"></path>
            </g>
            <g>
                <path
                    d="M122.55,153.725c-5.33415,0 -9.675,-4.34085 -9.675,-9.675v-32.25c0,-6.52095 5.3062,-11.825 11.825,-11.825h13.975v-26.875c0,-6.52095 5.3062,-11.825 11.825,-11.825c6.5188,0 11.825,5.30405 11.825,11.825v30.1c0,8.8924 -7.2326,16.125 -16.125,16.125h-13.975v24.11225c0,5.2546 -3.8098,9.7524 -8.6731,10.2383c-0.33755,0.03225 -0.67295,0.04945 -1.0019,0.04945z"
                    fill="#8bb7f0"></path>
                <path
                    d="M150.5,62.35c5.92755,0 10.75,4.82245 10.75,10.75v30.1c0,8.299 -6.751,15.05 -15.05,15.05h-12.9h-2.15v2.15v23.03725c0,4.7085 -3.3841,8.73545 -7.7056,9.1676c-0.301,0.0301 -0.59985,0.04515 -0.8944,0.04515c-4.7429,0 -8.6,-3.8571 -8.6,-8.6v-32.25c0,-5.92755 4.82245,-10.75 10.75,-10.75h12.9h2.15v-2.15v-25.8c0,-5.92755 4.82245,-10.75 10.75,-10.75M150.5,60.2c-7.1251,0 -12.9,5.7749 -12.9,12.9c0,0.26015 0,25.8 0,25.8h-12.9c-7.1251,0 -12.9,5.7749 -12.9,12.9v32.25c0,5.93615 4.8117,10.75 10.75,10.75c0.3655,0 0.7353,-0.0172 1.1094,-0.0559c5.5943,-0.559 9.6406,-5.6846 9.6406,-11.30685v-23.03725h12.9c9.4987,0 17.2,-7.7013 17.2,-17.2v-30.1c0,-7.1251 -5.7749,-12.9 -12.9,-12.9z"
                    fill="#4e7ab5"></path>
            </g>
        </g>
    </g>
</svg>