<svg width="738" height="499" xmlns="http://www.w3.org/2000/svg" xmlns:xlink="http://www.w3.org/1999/xlink" overflow="hidden"><defs><clipPath id="clip0"><rect x="80" y="-48" width="738" height="499"/></clipPath></defs><g clip-path="url(#clip0)" transform="translate(-80 48)"><path d="M578.497 421.497 550.146 421.497C542.096 421.497 540.49 411.685 540.49 411.685L540.49 346.605 503.5 346.605 503.5 316.503" stroke="#CFD9E0" stroke-linecap="round" stroke-linejoin="round" stroke-miterlimit="10" fill="none" fill-rule="evenodd"/><path d="M674.503 421.5 768.5 421.5" stroke="#CFD9E0" stroke-linecap="round" stroke-linejoin="round" stroke-miterlimit="10" fill="none" fill-rule="evenodd"/><path d="M591.302 390.503C584.237 390.503 578.5 397.994 578.5 407.24L578.5 433.752C578.5 442.997 584.237 450.497 591.302 450.497L661.698 450.497C668.774 450.497 674.5 442.997 674.5 433.752L674.5 407.24C674.5 397.994 668.774 390.503 661.698 390.503Z" stroke="#CFD9E0" stroke-miterlimit="1" fill="none" fill-rule="evenodd"/><path d="M367.497 252.5 322.503 252.5" stroke="#CFD9E0" stroke-linecap="round" stroke-linejoin="round" stroke-miterlimit="10" fill="none" fill-rule="evenodd"/><path d="M182.497 189.5 92.5026 189.5" stroke="#CFD9E0" stroke-linecap="round" stroke-linejoin="round" stroke-miterlimit="10" fill="none" fill-rule="evenodd"/><path d="M274.5 316.5 306.158 316.5C313.122 316.5 320.497 308.845 320.497 289.121L320.497 215.882C320.497 196.155 313.122 188.503 306.158 188.503L278.872 188.503" stroke="#CFD9E0" stroke-linecap="round" stroke-linejoin="round" stroke-miterlimit="10" fill="none" fill-rule="evenodd"/><path d="M92.5026 317.5 178.5 317.5" stroke="#CFD9E0" stroke-linecap="round" stroke-linejoin="round" stroke-miterlimit="10" fill="none" fill-rule="evenodd"/><path d="M191.294 281.503C184.229 281.503 178.503 288.993 178.503 298.24L178.503 324.76C178.503 334.007 184.229 341.497 191.294 341.497L261.695 341.497C268.764 341.497 274.497 334.007 274.497 324.76L274.497 298.24C274.497 288.993 268.764 281.503 261.695 281.503Z" stroke="#CFD9E0" stroke-miterlimit="1" fill="none" fill-rule="evenodd"/><path d="M195.305 163.5C188.237 163.5 182.5 171.117 182.5 180.517L182.5 207.472C182.5 216.872 188.229 224.497 195.305 224.497L265.698 224.497C272.764 224.497 278.5 216.872 278.5 207.472L278.5 180.517C278.5 171.117 272.764 163.5 265.698 163.5Z" stroke="#CFD9E0" stroke-miterlimit="1" fill="none" fill-rule="evenodd"/><path d="M530.503 252.5 576.497 252.5" stroke="#CFD9E0" stroke-linecap="round" stroke-linejoin="round" stroke-miterlimit="10" fill="none" fill-rule="evenodd"/><path d="M720.503 189.5 804.5 189.5" stroke="#CFD9E0" stroke-linecap="round" stroke-linejoin="round" stroke-miterlimit="10" fill="none" fill-rule="evenodd"/><path d="M624.5 316.5 590.998 316.5C583.946 316.5 576.5 308.845 576.5 289.121L576.5 215.882C576.5 196.155 583.946 188.503 590.998 188.503L624.5 188.503" stroke="#CFD9E0" stroke-linecap="round" stroke-linejoin="round" stroke-miterlimit="10" fill="none" fill-rule="evenodd"/><path d="M804.5 317.5 720.503 317.5" stroke="#CFD9E0" stroke-linecap="round" stroke-linejoin="round" stroke-miterlimit="10" fill="none" fill-rule="evenodd"/><path d="M637.173 163.5C630.17 163.5 624.503 171.117 624.503 180.517L624.503 207.472C624.503 216.872 630.17 224.497 637.173 224.497L706.838 224.497C713.833 224.497 719.5 216.872 719.5 207.472L719.5 180.517C719.5 171.117 713.833 163.5 706.838 163.5Z" stroke="#CFD9E0" stroke-miterlimit="1" fill="none" fill-rule="evenodd"/><path d="M637.305 281.503C630.239 281.503 624.503 288.993 624.503 298.24L624.503 324.76C624.503 334.007 630.239 341.497 637.305 341.497L707.695 341.497C714.764 341.497 720.5 334.007 720.5 324.76L720.5 298.24C720.5 288.993 714.764 281.503 707.695 281.503Z" stroke="#CFD9E0" stroke-miterlimit="1" fill="none" fill-rule="evenodd"/><path d="M531.5 251.499C531.5 300.651 495.011 340.5 450.007 340.5 404.989 340.5 368.503 300.651 368.503 251.499 368.503 202.349 404.989 162.5 450.007 162.5 495.011 162.5 531.5 202.349 531.5 251.499Z" stroke="#CFD9E0" stroke-miterlimit="1" fill="none" fill-rule="evenodd"/><path d="M315.503 78.5029 348.162 78.5029C356.151 78.5029 357.754 88.3142 357.754 88.3142L357.754 153.389 394.5 153.389 394.5 188.5" stroke="#CFD9E0" stroke-linecap="round" stroke-linejoin="round" stroke-miterlimit="10" fill="none" fill-rule="evenodd"/><path d="M220.5 79.5001 125.503 79.5001" stroke="#CFD9E0" stroke-linecap="round" stroke-linejoin="round" stroke-miterlimit="10" fill="none" fill-rule="evenodd"/><path d="M233.171 49.5028C226.179 49.5028 220.503 57.0028 220.503 66.2485L220.503 92.76C220.503 102.006 226.179 109.497 233.171 109.497L302.839 109.497C309.831 109.497 315.5 102.006 315.5 92.76L315.5 66.2485C315.5 57.0028 309.831 49.5028 302.839 49.5028Z" stroke="#CFD9E0" stroke-miterlimit="1" fill="none" fill-rule="evenodd"/><path d="M315.5 421.497 348.128 421.497C356.133 421.497 357.737 411.728 357.737 411.728L357.737 346.934 394.5 346.934 394.5 324.503" stroke="#CFD9E0" stroke-linecap="round" stroke-linejoin="round" stroke-miterlimit="10" fill="none" fill-rule="evenodd"/><path d="M220.5 421.5 125.503 421.5" stroke="#CFD9E0" stroke-linecap="round" stroke-linejoin="round" stroke-miterlimit="10" fill="none" fill-rule="evenodd"/><path d="M233.171 390.503C226.179 390.503 220.503 397.994 220.503 407.24L220.503 433.752C220.503 442.997 226.179 450.497 233.171 450.497L302.839 450.497C309.831 450.497 315.5 442.997 315.5 433.752L315.5 407.24C315.5 397.994 309.831 390.503 302.839 390.503Z" stroke="#CFD9E0" stroke-miterlimit="1" fill="none" fill-rule="evenodd"/><path d="M582.497 78.5029 553.13 78.5029C545.083 78.5029 543.47 88.3142 543.47 88.3142L543.47 153.389 506.5 153.389 506.5 188.5" stroke="#CFD9E0" stroke-linecap="round" stroke-linejoin="round" stroke-miterlimit="10" fill="none" fill-rule="evenodd"/><path d="M678.503 79.5001 768.5 79.5001" stroke="#CFD9E0" stroke-linecap="round" stroke-linejoin="round" stroke-miterlimit="10" fill="none" fill-rule="evenodd"/><path d="M595.295 49.5028C588.226 49.5028 582.5 57.0028 582.5 66.2485L582.5 92.76C582.5 102.006 588.226 109.497 595.302 109.497L665.698 109.497C672.764 109.497 678.5 102.006 678.5 92.76L678.5 66.2485C678.5 57.0028 672.764 49.5028 665.698 49.5028Z" stroke="#CFD9E0" stroke-miterlimit="1" fill="none" fill-rule="evenodd"/><path d="M446.237 188.167C446.105 187.195 445.889 186.231 445.577 185.307 444.581 182.396 442.613 180.503 439.01 180.503 434.841 180.503 432.876 183.065 432.048 186.762 423.175 185.225 415.148 192.738 415.204 202.526 415.204 202.967 415.233 203.396 415.269 203.818 408.993 201.028 401.776 202.854 397.28 208.377 392.782 213.901 391.964 221.916 395.248 228.372 390.899 232.142 388.5 237.963 388.81 244.012 389.122 250.046 392.096 255.55 396.801 258.769 390.429 267.346 392.903 280.126 401.918 285.177 401.843 285.824 401.815 286.47 401.815 287.127 401.815 295.212 406.878 301.986 413.737 303.952 416.296 311.928 424.142 316.333 431.596 313.976 431.924 319.387 433.704 323.497 439.01 323.497 446.49 323.497 446.379 316.446 446.49 316.477 446.5 316.477 446.322 188.147 446.237 188.167Z" stroke="#E4E9ED" stroke-miterlimit="1" fill="none" fill-rule="evenodd"/><path d="M446.5 219.503C446.5 219.503 422.5 221.067 429.222 251.497" stroke="#FFFFFF" stroke-linecap="round" stroke-linejoin="round" stroke-miterlimit="10" fill="none" fill-rule="evenodd"/><path d="M431.503 204.556C431.503 204.556 446.498 199.5 446.498 215.5" stroke="#FFFFFF" stroke-linecap="round" stroke-linejoin="round" stroke-miterlimit="10" fill="none" fill-rule="evenodd"/><path d="M415.503 202.503C415.503 202.503 415.503 209.88 420.498 215.5" stroke="#FFFFFF" stroke-linecap="round" stroke-linejoin="round" stroke-miterlimit="10" fill="none" fill-rule="evenodd"/><path d="M395.503 228.257C404.064 220.5 412.359 230.5 412.359 230.5 412.359 230.5 414.102 221.627 425.498 225.315" stroke="#FFFFFF" stroke-linecap="round" stroke-linejoin="round" stroke-miterlimit="10" fill="none" fill-rule="evenodd"/><path d="M402.557 287.5C402.557 287.5 402.5 270.994 413.954 272.611 413.954 272.611 408.005 263.557 418.5 254.503" stroke="#FFFFFF" stroke-linecap="round" stroke-linejoin="round" stroke-miterlimit="10" fill="none" fill-rule="evenodd"/><path d="M417.5 287.503C417.5 287.503 410.5 295.787 415.095 307.5" stroke="#FFFFFF" stroke-linecap="round" stroke-linejoin="round" stroke-miterlimit="10" fill="none" fill-rule="evenodd"/><path d="M446.497 286.993C435.429 285.503 430.692 297.416 430.692 297.416 430.692 297.416 427.752 295.99 425.5 299.5" stroke="#FFFFFF" stroke-linecap="round" stroke-linejoin="round" stroke-miterlimit="10" fill="none" fill-rule="evenodd"/><path d="M428.498 240.503C428.498 240.503 417.633 252.5 410.503 240.503" stroke="#FFFFFF" stroke-linecap="round" stroke-linejoin="round" stroke-miterlimit="10" fill="none" fill-rule="evenodd"/><path d="M428.5 264.402C428.5 264.402 439.718 261.503 446.498 270.497" stroke="#FFFFFF" stroke-linecap="round" stroke-linejoin="round" stroke-miterlimit="10" fill="none" fill-rule="evenodd"/><path d="M452.5 219.503C452.5 219.503 475.498 221.067 469.064 251.497" stroke="#40566D" stroke-miterlimit="1" fill="none" fill-rule="evenodd"/><path d="M467.5 204.556C467.5 204.556 452.5 199.5 452.5 215.5" stroke="#40566D" stroke-miterlimit="1" fill="none" fill-rule="evenodd"/><path d="M483.5 202.503C483.5 202.503 483.5 209.88 478.503 215.5" stroke="#40566D" stroke-miterlimit="1" fill="none" fill-rule="evenodd"/><path d="M496.443 287.5C496.443 287.5 496.497 270.994 485.058 272.611 485.058 272.611 490.993 263.557 480.503 254.503" stroke="#40566D" stroke-miterlimit="1" fill="none" fill-rule="evenodd"/><path d="M480.5 287.503C480.5 287.503 487.498 295.787 482.9 307.5" stroke="#40566D" stroke-miterlimit="1" fill="none" fill-rule="evenodd"/><path d="M452.5 286.993C463.037 285.503 467.55 297.416 467.55 297.416 467.55 297.416 470.349 295.99 472.5 299.5" stroke="#40566D" stroke-miterlimit="1" fill="none" fill-rule="evenodd"/><path d="M470.503 240.503C470.503 240.503 481.357 252.5 488.498 240.503" stroke="#40566D" stroke-miterlimit="1" fill="none" fill-rule="evenodd"/><path d="M470.5 264.402C470.5 264.402 459.287 261.503 452.5 270.497" stroke="#40566D" stroke-miterlimit="1" fill="none" fill-rule="evenodd"/><path d="M503.5 228.257C494.658 220.5 486.084 230.5 486.084 230.5 486.084 230.5 484.271 221.627 472.503 225.315" stroke="#40566D" stroke-miterlimit="1" fill="none" fill-rule="evenodd"/><path d="M452.755 188.167C452.887 187.195 453.111 186.231 453.413 185.307 454.419 182.396 456.377 180.503 459.981 180.503 464.15 180.503 466.126 183.065 466.947 186.762 475.821 185.225 483.846 192.738 483.792 202.526 483.792 202.967 483.764 203.396 483.735 203.818 490.012 201.028 497.22 202.854 501.726 208.377 506.225 213.901 507.035 221.916 503.751 228.372 508.098 232.134 510.497 237.963 510.188 244 509.878 250.046 506.904 255.55 502.198 258.769 505.23 262.837 506.406 268.167 505.415 273.291 504.42 278.415 501.36 282.781 497.088 285.169 497.155 285.815 497.184 286.47 497.191 287.116 497.184 295.027 492.279 301.935 485.26 303.944 482.709 311.928 474.851 316.333 467.406 313.965 467.068 319.379 465.29 323.497 459.981 323.497 452.5 323.497 452.603 316.446 452.5 316.477 452.5 316.477 452.678 188.147 452.755 188.167Z" stroke="#40566D" stroke-miterlimit="1" fill="none" fill-rule="evenodd"/><path d="M774.783 413C772.904 413 771.06 413.76 769.685 415.195 767.62 417.345 767 420.566 768.122 423.366 769.232 426.169 771.869 428 774.78 428 778.762 428 781.989 424.633 781.997 420.504 781.989 417.466 780.24 414.735 777.544 413.569 776.651 413.188 775.713 413 774.783 413Z" fill="#213B55" fill-rule="evenodd"/><path d="M504.267 309.003C501.547 309.003 499.085 310.834 498.047 313.635 497 316.428 497.579 319.662 499.508 321.799 500.792 323.237 502.514 324 504.267 324 505.138 324 506.014 323.812 506.848 323.425 509.363 322.27 511 319.538 511 316.501 511 312.357 507.986 309.003 504.267 309.003Z" fill="#CFD9E0" fill-rule="evenodd"/><path d="M320.266 243.003C317.539 243.003 315.087 244.823 314.04 247.624 313.003 250.428 313.571 253.651 315.5 255.799 316.789 257.234 318.511 258 320.261 258 321.129 258 322.003 257.812 322.839 257.425 325.354 256.27 326.997 253.538 326.997 250.499 326.997 246.357 323.987 243.003 320.266 243.003Z" fill="#CFD9E0" fill-rule="evenodd"/><path d="M87.214 307C83.2293 307 80 310.356 80 314.497 80 317.536 81.7617 320.267 84.4595 321.431 85.3498 321.815 86.2833 322 87.2113 322 89.089 322 90.937 321.237 92.321 319.805 94.3795 317.657 94.9973 314.427 93.8858 311.635 92.7635 308.831 90.1358 307 87.214 307Z" fill="#667E92" fill-rule="evenodd"/><path d="M87.214 181.003C83.2293 181.003 80 184.356 80 188.5 80 191.536 81.7617 194.267 84.4595 195.422 85.3525 195.809 86.2887 195.997 87.2194 195.997 89.0944 195.997 90.9398 195.235 92.321 193.796 94.3795 191.66 94.9973 188.427 93.8858 185.626 92.7635 182.822 90.1358 181.003 87.214 181.003Z" fill="#E6EBEF" fill-rule="evenodd"/><path d="M575.775 243.003C572.862 243.003 570.234 244.823 569.112 247.624 568 250.428 568.61 253.651 570.679 255.799 572.052 257.234 573.9 258 575.778 258 576.709 258 577.647 257.812 578.54 257.425 581.238 256.27 582.989 253.538 583 250.499 583 246.357 579.763 243.003 575.775 243.003Z" fill="#CFD9E0" fill-rule="evenodd"/><path d="M119.999 71C116.133 71 113 74.3567 113 78.4986 113 82.6433 116.133 85.9972 119.999 85.9972 123.867 85.9972 126.997 82.6433 126.997 78.4986 126.997 74.3567 123.867 71 119.999 71Z" fill="#E3E9ED" fill-rule="evenodd"/><path d="M394.27 180C391.546 180 389.096 181.831 388.049 184.634 387.003 187.434 387.581 190.655 389.508 192.802 390.796 194.24 392.517 194.997 394.265 194.997 395.133 194.997 396.006 194.812 396.842 194.428 399.355 193.262 400.997 190.532 400.997 187.507 400.997 183.364 397.979 180 394.27 180Z" fill="#CFD9E0" fill-rule="evenodd"/><path d="M394.27 309.003C391.546 309.003 389.096 310.833 388.049 313.634 387.003 316.437 387.581 319.658 389.508 321.805 390.799 323.235 392.522 323.997 394.273 323.997 395.138 323.997 396.009 323.812 396.842 323.431 399.355 322.265 400.997 319.534 400.997 316.499 400.997 312.355 397.979 309.003 394.27 309.003Z" fill="#CFD9E0" fill-rule="evenodd"/><path d="M119.733 413C118.862 413 117.986 413.188 117.152 413.569 114.637 414.735 113 417.466 113 420.504 113 424.633 116.014 428 119.733 428 122.453 428 124.915 426.169 125.953 423.366 127 420.566 126.421 417.345 124.502 415.195 123.21 413.76 121.486 413 119.733 413Z" fill="#E4E9ED" fill-rule="evenodd"/><path d="M774.78 71C771.869 71 769.232 72.8228 768.122 75.6242 767 78.4285 767.62 81.6618 769.685 83.7987 771.06 85.2344 772.904 86 774.783 86 775.713 86 776.651 85.8121 777.544 85.4251 780.24 84.2698 781.989 81.5384 781.997 78.4986 781.989 74.3567 778.762 71 774.78 71Z" fill="#A5B7C5" fill-rule="evenodd"/><path d="M505.786 180C502.872 180 500.234 181.831 499.122 184.635 498 187.436 498.621 190.657 500.687 192.805 502.066 194.237 503.914 195 505.797 195 506.725 195 507.661 194.812 508.551 194.431 511.246 193.264 513 190.534 513 187.508 513 183.364 509.771 180 505.786 180Z" fill="#CFD9E0" fill-rule="evenodd"/><path d="M810.267 179C807.547 179 805.085 180.831 804.047 183.634 803 186.434 803.579 189.655 805.5 191.802 806.79 193.24 808.514 194 810.269 194 811.138 194 812.014 193.812 812.848 193.431 815.363 192.265 817 189.534 817 186.507 817 182.364 813.986 179 810.267 179Z" fill="#445D73" fill-rule="evenodd"/><path d="M810.267 307C807.547 307 805.085 308.823 804.047 311.624 803 314.428 803.579 317.662 805.5 319.799 806.79 321.234 808.514 322 810.269 322 811.138 322 812.014 321.812 812.848 321.425 815.363 320.27 817 317.538 817 314.499 817 310.357 813.986 307 810.267 307Z" fill="#869FB1" fill-rule="evenodd"/></g></svg>