<svg xmlns="http://www.w3.org/2000/svg" x="0px" y="0px" width="16" height="16" viewBox="0 0 172 172"
    style=" fill:#000000;">
    <g fill="none" fill-rule="nonzero" stroke="none" stroke-width="none" stroke-linecap="butt" stroke-linejoin="miter"
        stroke-miterlimit="10" stroke-dasharray="" stroke-dashoffset="0" font-family="none" font-weight="none"
        font-size="none" text-anchor="none" style="mix-blend-mode: normal">
        <path d="M0,172v-172h172v172z" fill="none" stroke="none" stroke-width="1"></path>
        <g>
            <path
                d="M27.3609,161.25c-2.0468,0 -3.7109,-1.7028 -3.7109,-3.8055v-142.889c0,-2.1027 1.6684,-3.8055 3.7109,-3.8055h43.7611c-0.1161,0.7224 -0.172,1.4362 -0.172,2.15c0,8.299 6.751,15.05 15.05,15.05c8.299,0 15.05,-6.751 15.05,-15.05c0,-0.7138 -0.0559,-1.4276 -0.172,-2.15h43.7611c2.0468,0 3.7109,1.7028 3.7109,3.8055v142.889c0,2.0984 -1.6684,3.8055 -3.7109,3.8055z"
                fill="#f5c276" stroke="none" stroke-width="1"></path>
            <path
                d="M144.6348,12.9c0.8643,0 1.5652,0.7439 1.5652,1.6555v142.8933c0,0.9073 -0.7009,1.6512 -1.5652,1.6512h-117.2696c-0.8643,0 -1.5652,-0.7439 -1.5652,-1.6555v-142.889c0,-0.9116 0.7009,-1.6555 1.5652,-1.6555h41.4348c0,9.4858 7.7142,17.2 17.2,17.2c9.4858,0 17.2,-7.7142 17.2,-17.2h41.4348M144.6348,8.6h-46.526c0.4816,1.3502 0.7912,2.7821 0.7912,4.3c0,7.1251 -5.7749,12.9 -12.9,12.9c-7.1251,0 -12.9,-5.7749 -12.9,-12.9c0,-1.5179 0.3096,-2.9498 0.7912,-4.3h-46.526c-3.2379,0 -5.8652,2.666 -5.8652,5.9555v142.8933c0,3.2852 2.6273,5.9512 5.8652,5.9512h117.2739c3.2336,0 5.8609,-2.666 5.8609,-5.9555v-142.889c0,-3.2895 -2.6273,-5.9555 -5.8652,-5.9555z"
                fill="#c29653" stroke="none" stroke-width="1"></path>
            <path d="M38.7,25.8h94.6v120.4h-94.6z" fill="#ffffff" stroke="none" stroke-width="1"></path>
            <path d="M55.9,90.0893l20.2057,20.2057l39.9943,-39.99" fill="none" stroke="#5e9c76" stroke-width="12.9">
            </path>
            <path
                d="M95.8427,8.6c0.9675,2.2145 1.2427,4.7988 0.4257,7.5121c-1.0621,3.5217 -4.0291,6.3597 -7.6067,7.2197c-7.0907,1.6985 -13.4117,-3.6292 -13.4117,-10.4318c0,-1.5308 0.3311,-2.9799 0.9073,-4.3h-20.2573v17.2c0,4.7515 3.8485,8.6 8.6,8.6h43c4.7515,0 8.6,-3.8485 8.6,-8.6v-17.2z"
                fill="#66798f" stroke="none" stroke-width="1"></path>
            <g fill="#66798f" stroke="none" stroke-width="1">
                <path
                    d="M86,4.3c4.7429,0 8.6,3.8571 8.6,8.6c0,4.7429 -3.8571,8.6 -8.6,8.6c-4.7429,0 -8.6,-3.8571 -8.6,-8.6c0,-4.7429 3.8571,-8.6 8.6,-8.6M86,0c-7.1251,0 -12.9,5.7749 -12.9,12.9c0,7.1251 5.7749,12.9 12.9,12.9c7.1251,0 12.9,-5.7749 12.9,-12.9c0,-7.1251 -5.7749,-12.9 -12.9,-12.9z">
                </path>
            </g>
        </g>
    </g>
</svg>