<svg xmlns="http://www.w3.org/2000/svg" x="0px" y="0px" width="50" height="50" viewBox="0 0 172 172"
    style=" fill:#000000;">
    <g fill="none" fill-rule="nonzero" stroke="none" stroke-width="1" stroke-linecap="butt" stroke-linejoin="miter"
        stroke-miterlimit="10" stroke-dasharray="" stroke-dashoffset="0" font-family="none" font-weight="none"
        font-size="none" text-anchor="none" style="mix-blend-mode: normal">
        <path d="M0,172v-172h172v172z" fill="none"></path>
        <g fill="#000000">
            <path
                d="M44.54531,3.44672c-1.41469,0.07085 -2.64136,1.00152 -3.09063,2.34484l-8.91578,26.74734l-26.74734,8.91578c-1.40717,0.46687 -2.35697,1.78272 -2.35697,3.26531c0,1.4826 0.9498,2.79844 2.35697,3.26531l26.74734,8.91578l8.91578,26.74734c0.46687,1.40717 1.78272,2.35697 3.26531,2.35697c1.4826,0 2.79844,-0.9498 3.26531,-2.35697l8.91578,-26.74734l26.74734,-8.91578c1.40717,-0.46687 2.35697,-1.78272 2.35697,-3.26531c0,-1.4826 -0.9498,-2.79844 -2.35697,-3.26531l-26.74734,-8.91578l-8.91578,-26.74734c-0.48998,-1.46544 -1.89687,-2.42443 -3.44,-2.34484zM44.72,17.76438l6.19469,18.58406c0.34237,1.02792 1.14896,1.8345 2.17688,2.17688l18.58406,6.19469l-18.58406,6.19469c-1.02792,0.34237 -1.8345,1.14896 -2.17688,2.17688l-6.19469,18.58406l-6.19469,-18.58406c-0.34237,-1.02792 -1.14896,-1.8345 -2.17688,-2.17688l-18.58406,-6.19469l18.58406,-6.19469c1.02792,-0.34237 1.8345,-1.14896 2.17688,-2.17688zM115.0989,37.84672c-1.43851,0.05958 -2.68778,1.0086 -3.13094,2.37844l-12.42969,38.67313l-38.67313,12.42969c-1.41761,0.46051 -2.37744,1.7815 -2.37744,3.27203c0,1.49053 0.95983,2.81153 2.37744,3.27203l38.67313,12.42969l12.42969,38.67313c0.46051,1.41761 1.7815,2.37744 3.27203,2.37744c1.49053,0 2.81153,-0.95983 3.27203,-2.37744l12.42969,-38.67313l38.67313,-12.42969c1.41761,-0.46051 2.37744,-1.7815 2.37744,-3.27203c0,-1.49053 -0.95983,-2.81153 -2.37744,-3.27203l-38.67313,-12.42969l-12.42969,-38.67313c-0.47522,-1.46879 -1.87065,-2.44119 -3.41313,-2.37844zM115.24,52.51375l9.69515,30.16719c0.33925,1.05659 1.16732,1.88466 2.22391,2.22391l30.16719,9.69515l-30.16719,9.69515c-1.05659,0.33925 -1.88466,1.16732 -2.22391,2.22391l-9.69515,30.16719l-9.69515,-30.16719c-0.33925,-1.05659 -1.16732,-1.88466 -2.22391,-2.22391l-30.16719,-9.69515l30.16719,-9.69515c1.05659,-0.33925 1.88466,-1.16732 2.22391,-2.22391zM30.78531,106.64672c-1.41469,0.07085 -2.64136,1.00152 -3.09063,2.34485l-6.33578,19.00734l-19.00063,6.32906c-1.40717,0.46687 -2.35697,1.78272 -2.35697,3.26531c0,1.4826 0.9498,2.79844 2.35697,3.26531l19.00063,6.33578l6.33578,19.00063c0.46687,1.40717 1.78272,2.35697 3.26531,2.35697c1.4826,0 2.79844,-0.9498 3.26531,-2.35697l6.33578,-19.00063l19.00734,-6.33578c1.40717,-0.46687 2.35697,-1.78272 2.35697,-3.26531c0,-1.4826 -0.9498,-2.79844 -2.35697,-3.26531l-19.00734,-6.32906l-6.33578,-19.00734c-0.48998,-1.46544 -1.89687,-2.42443 -3.44,-2.34485zM30.96,120.96437l3.61469,10.83735c0.34237,1.02792 1.14896,1.8345 2.17688,2.17688l10.84406,3.61469l-10.84406,3.61469c-1.02792,0.34237 -1.8345,1.14896 -2.17688,2.17688l-3.61469,10.83734l-3.61469,-10.83734c-0.34237,-1.02792 -1.14896,-1.8345 -2.17688,-2.17688l-10.84406,-3.61469l10.84406,-3.61469c1.02792,-0.34237 1.8345,-1.14896 2.17688,-2.17688z">
            </path>
        </g>
    </g>
</svg>