<svg xmlns="http://www.w3.org/2000/svg" x="0px" y="0px" width="80" height="80" viewBox="0 0 172 172"
    style=" fill:#000000;">
    <g fill="none" fill-rule="nonzero" stroke="none" stroke-width="1" stroke-linecap="butt" stroke-linejoin="miter"
        stroke-miterlimit="10" stroke-dasharray="" stroke-dashoffset="0" font-family="none" font-weight="none"
        font-size="none" text-anchor="none" style="mix-blend-mode: normal">
        <path d="M0,172v-172h172v172z" fill="none"></path>
        <g fill="#000000">
            <path
                d="M86,1.34375c-9.675,0 -17.46875,7.79375 -17.46875,17.46875c0,9.675 7.79375,17.46875 17.46875,17.46875c9.675,0 17.46875,-7.79375 17.46875,-17.46875c0,-9.675 -7.79375,-17.46875 -17.46875,-17.46875zM38.96875,9.40625c-9.675,0 -17.46875,7.79375 -17.46875,17.46875c0,9.675 7.79375,17.46875 17.46875,17.46875c9.675,0 17.46875,-7.79375 17.46875,-17.46875c0,-9.675 -7.79375,-17.46875 -17.46875,-17.46875zM86,9.40625c5.24063,0 9.40625,4.16563 9.40625,9.40625c0,5.24062 -4.16562,9.40625 -9.40625,9.40625c-5.24062,0 -9.40625,-4.16563 -9.40625,-9.40625c0,-5.24062 4.16563,-9.40625 9.40625,-9.40625zM133.03125,9.40625c-9.675,0 -17.46875,7.79375 -17.46875,17.46875c0,9.675 7.79375,17.46875 17.46875,17.46875c9.675,0 17.46875,-7.79375 17.46875,-17.46875c0,-9.675 -7.79375,-17.46875 -17.46875,-17.46875zM38.96875,17.46875c5.24063,0 9.40625,4.16563 9.40625,9.40625c0,5.24063 -4.16562,9.40625 -9.40625,9.40625c-5.24063,0 -9.40625,-4.16562 -9.40625,-9.40625c0,-5.24062 4.16562,-9.40625 9.40625,-9.40625zM133.03125,17.46875c5.24062,0 9.40625,4.16563 9.40625,9.40625c0,5.24063 -4.16563,9.40625 -9.40625,9.40625c-5.24063,0 -9.40625,-4.16562 -9.40625,-9.40625c0,-5.24062 4.16562,-9.40625 9.40625,-9.40625zM73.63855,41.65625c-8.73437,0 -16.2599,6.5849 -17.3349,15.31928l-5.24115,41.92395c-0.26875,2.15 1.34322,4.16668 3.49322,4.43543c2.15,0.26875 4.16668,-1.34323 4.43543,-3.49323l5.24115,-41.92657c0.5375,-4.70312 4.56665,-8.19635 9.26978,-8.19635h23.24792c8.19687,0 9.40625,10.88437 9.40625,17.46875v24.1875c0,2.28437 -1.74688,4.03125 -4.03125,4.03125c-2.28437,0 -4.03125,1.74688 -4.03125,4.03125v8.0625v1.07605v54.0177h-8.0625v-55.09375c0,-2.28437 -1.74688,-4.03125 -4.03125,-4.03125c-2.28437,0 -4.03125,1.74688 -4.03125,4.03125v55.09375h-8.0625v-63.15625c0,-2.28437 -1.74688,-4.03125 -4.03125,-4.03125c-2.28437,0 -4.03125,1.74688 -4.03125,4.03125v63.15625h-21.5c-2.28437,0 -4.03125,1.74687 -4.03125,4.03125c0,2.28438 1.74688,4.03125 4.03125,4.03125h83.3125c2.28438,0 4.03125,-1.74687 4.03125,-4.03125c0,-2.28438 -1.74687,-4.03125 -4.03125,-4.03125h-21.5v-54.0177v-1.07605v-4.70312c4.70313,-1.6125 8.0625,-6.18125 8.0625,-11.42187v-24.1875c0,-6.04687 -1.20938,-25.53125 -17.46875,-25.53125zM26.33697,49.71875c-8.6,0 -15.85467,6.18125 -17.19842,14.78125l-5.1073,31.57813c-0.40312,2.15 1.20937,4.30053 3.35938,4.56928h0.67188c2.01563,0 3.62812,-1.47812 4.03125,-3.35937l4.97083,-31.57812c0.67188,-4.56875 4.56927,-7.92865 9.2724,-7.92865h23.38178c2.28438,0 4.03125,-1.74687 4.03125,-4.03125c0,-2.28438 -1.74687,-4.03125 -4.03125,-4.03125zM122.28125,49.71875c-2.28437,0 -4.03125,1.74687 -4.03125,4.03125c0,2.28438 1.74688,4.03125 4.03125,4.03125h21.5c5.24062,0 9.40625,4.16562 9.40625,9.40625v32.25c0,2.28437 -1.74687,4.03125 -4.03125,4.03125c-2.28438,0 -4.03125,1.74688 -4.03125,4.03125v58.72083c0,2.28438 1.74687,4.03125 4.03125,4.03125c2.28438,0 4.03125,-1.74687 4.03125,-4.03125v-55.36145c4.70313,-1.6125 8.0625,-6.18125 8.0625,-11.42187v-32.25c0,-9.675 -7.79375,-17.46875 -17.46875,-17.46875zM22.84375,103.06458c-2.28438,0 -4.03125,1.74687 -4.03125,4.03125v59.52917c0,2.28438 1.74687,4.03125 4.03125,4.03125c2.28438,0 4.03125,-1.74687 4.03125,-4.03125v-59.52917c0,-2.15 -1.74687,-4.03125 -4.03125,-4.03125zM8.0625,108.84375c-2.28437,0 -4.03125,1.74688 -4.03125,4.03125v18.8125c0,2.28438 1.74688,4.03125 4.03125,4.03125c2.28438,0 4.03125,-1.74687 4.03125,-4.03125v-18.8125c0,-2.28437 -1.74687,-4.03125 -4.03125,-4.03125zM55.09375,108.84375c-2.28438,0 -4.03125,1.74688 -4.03125,4.03125v18.8125c0,2.28438 1.74687,4.03125 4.03125,4.03125c2.28438,0 4.03125,-1.74687 4.03125,-4.03125v-18.8125c0,-2.28437 -1.74687,-4.03125 -4.03125,-4.03125z">
            </path>
        </g>
    </g>
</svg>