<!-- <svg xmlns="http://www.w3.org/2000/svg" version="1.1" xmlns:xlink="http://www.w3.org/1999/xlink" xmlns:svgjs="http://svgjs.com/svgjs" width="1640" height="560" preserveAspectRatio="none" viewBox="0 0 1640 560"> 
    <g mask="url(&quot;#SvgjsMask1018&quot;)" fill="none">
        <rect width="1640" height="560" x="0" y="0" fill="rgba(1, 42, 74, 1)"></rect>
        <path d="M886.852,314.71C922.234,313.946,953.978,293.775,971.284,262.905C988.209,232.715,987.458,196.037,970.2,166.037C952.894,135.954,921.558,116.262,886.852,116.135C851.929,116.007,820.501,135.533,802.437,165.421C783.683,196.451,778.013,235.132,795.859,266.693C813.951,298.689,850.104,315.503,886.852,314.71" fill="rgba(28, 83, 142, 0.4)" class="triangle-float2"></path>
        <path d="M802.3899943261986 57.75405865177029L705.2778315966833-53.96070530916961 593.5630676357434 43.15145742034561 690.6752303652587 154.86622138128553z" fill="rgba(28, 83, 142, 0.4)" class="triangle-float3"></path>
        <path d="M1306.75,573.25C1330.736,574.656,1355.803,563.57,1366.271,541.943C1375.889,522.073,1362.131,501.092,1350.868,482.106C1339.952,463.704,1328.146,441.533,1306.75,441.606C1285.417,441.678,1272.937,463.45,1263.147,482.404C1254.387,499.365,1249.938,518.399,1258.198,535.609C1267.695,555.396,1284.84,571.966,1306.75,573.25" fill="rgba(28, 83, 142, 0.4)" class="triangle-float3"></path>
        <path d="M-52.61727407766117-68.30102901490314L-82.93065325830688 63.00064157409135 48.3710173306876 93.31402075473706 78.68439651133332-37.987649834257425z" fill="rgba(28, 83, 142, 0.4)" class="triangle-float1"></path>
        <path d="M811.7846016859353 230.75983469071738L891.2224059481598 129.2835697572707 779.9556262178836 111.66064312297746z" fill="rgba(28, 83, 142, 0.4)" class="triangle-float1"></path>
        <path d="M1173.5124898350982 277.65615276718256L1190.1090323445505 172.86970735975882 1068.7260444276744 261.0596102577302z" fill="rgba(28, 83, 142, 0.4)" class="triangle-float3"></path>
        <path d="M975.7835064487015 391.20092940847996L962.9767090259835 472.0598660343016 1090.668512676075 450.84059385546766z" fill="rgba(28, 83, 142, 0.4)" class="triangle-float3"></path>
        <path d="M64.666,287.981C111.298,286.884,147.511,251.196,169.376,209.993C189.742,171.614,192.481,125.913,170.585,88.386C148.855,51.144,107.77,29.437,64.666,30.535C23.362,31.587,-10.648,58.366,-32.304,93.553C-55.283,130.889,-68.511,175.899,-48.944,215.131C-27.424,258.279,16.462,289.115,64.666,287.981" fill="rgba(28, 83, 142, 0.4)" class="triangle-float1"></path>
        <path d="M1075.5881130140035 462.625380889903L1171.790714785404 577.4973280830831 1218.72949443573 455.2176265059461z" fill="rgba(28, 83, 142, 0.4)" class="triangle-float1"></path>
    </g>
    <defs>
        <mask id="SvgjsMask1018">
            <rect width="1640" height="560" fill="#ffffff"></rect>
        </mask>
        <style>
            @keyframes float1 {
                0%{transform: translate(0, 0)}
                50%{transform: translate(-10px, 0)}
                100%{transform: translate(0, 0)}
            }

            .triangle-float1 {
                animation: float1 5s infinite;
            }

            @keyframes float2 {
                0%{transform: translate(0, 0)}
                50%{transform: translate(-5px, -5px)}
                100%{transform: translate(0, 0)}
            }

            .triangle-float2 {
                animation: float2 4s infinite;
            }

            @keyframes float3 {
                0%{transform: translate(0, 0)}
                50%{transform: translate(0, -10px)}
                100%{transform: translate(0, 0)}
            }

            .triangle-float3 {
                animation: float3 6s infinite;
            }
        </style>
    </defs>
</svg> -->


<!-- version2 -->
<svg xmlns="http://www.w3.org/2000/svg" version="1.1" xmlns:xlink="http://www.w3.org/1999/xlink" xmlns:svgjs="http://svgjs.com/svgjs" width="1540" height="560" preserveAspectRatio="none" viewBox="0 0 1540 560">
    <g mask="url(&quot;#SvgjsMask1123&quot;)" fill="none">
        <rect width="1540" height="560" x="0" y="0" fill="rgba(1, 42, 74, 1)"></rect>
        <path d="M1256.2691575335834 426.2789555850351L1120.8146884913494 430.87988571983794 1181.834749319836 532.4343209684682z" fill="rgba(28, 83, 142, 0.4)" class="triangle-float2"></path>
        <path d="M772.0937064063676 383.0253532866612L767.4581044413221 515.7716252764826 900.2043764311436 520.4072272415281 904.839978396189 387.6609552517066z" fill="rgba(28, 83, 142, 0.4)" class="triangle-float2"></path>
        <path d="M756.8707956946245 416.6245764092807L633.5042079787199 523.8655150003586 740.745146569798 647.2321027162632 864.1117342857025 539.9911641251852z" fill="rgba(28, 83, 142, 0.4)" class="triangle-float1"></path>
        <path d="M352.57 498.95 a101.11 101.11 0 1 0 202.22 0 a101.11 101.11 0 1 0 -202.22 0z" fill="rgba(28, 83, 142, 0.4)" class="triangle-float2"></path>
        <path d="M551.49 225.87 a121.86 121.86 0 1 0 243.72 0 a121.86 121.86 0 1 0 -243.72 0z" fill="rgba(28, 83, 142, 0.4)" class="triangle-float1"></path>
        <path d="M136.37761021438737 359.15192825437254L260.3114859119985 374.3690947628989 275.52865242052485 250.4352190652878 151.59477672291374 235.21805255676145z" fill="rgba(28, 83, 142, 0.4)" class="triangle-float3"></path>
        <path d="M491.0029188732514 77.27975334796211L464.7560805127664 200.76141937731398 614.4845849026033 103.52659170844711z" fill="rgba(28, 83, 142, 0.4)" class="triangle-float3"></path>
        <path d="M1102.57 280.29 a176.34 176.34 0 1 0 352.68 0 a176.34 176.34 0 1 0 -352.68 0z" fill="rgba(28, 83, 142, 0.4)" class="triangle-float3"></path>
    </g>
    <defs>
        <mask id="SvgjsMask1123">
            <rect width="1540" height="560" fill="#ffffff"></rect>
        </mask>
        <style>
            @keyframes float1 {
                0%{transform: translate(0, 0)}
                50%{transform: translate(-10px, 0)}
                100%{transform: translate(0, 0)}
            }

            .triangle-float1 {
                animation: float1 5s infinite;
            }

            @keyframes float2 {
                0%{transform: translate(0, 0)}
                50%{transform: translate(-5px, -5px)}
                100%{transform: translate(0, 0)}
            }

            .triangle-float2 {
                animation: float2 4s infinite;
            }

            @keyframes float3 {
                0%{transform: translate(0, 0)}
                50%{transform: translate(0, -10px)}
                100%{transform: translate(0, 0)}
            }

            .triangle-float3 {
                animation: float3 6s infinite;
            }
        </style>
    </defs>
</svg>