<svg width="621" height="429" xmlns="http://www.w3.org/2000/svg" xmlns:xlink="http://www.w3.org/1999/xlink"
    overflow="hidden">
    <defs>
        <clipPath id="clip0">
            <rect x="-205" y="-135" width="621" height="429" />
        </clipPath>
    </defs>
    <g clip-path="url(#clip0)" transform="translate(205 135)">
        <path
            d="M-89.0017 51.4968-66.5033 38.1732-66.5033 11.8269-89.0017-1.49678-111.5 11.7254-111.5 38.1732-89.0017 51.4968Z"
            stroke="#FFFFFF" stroke-linejoin="round" stroke-miterlimit="10" fill="#FFFFFF" fill-rule="evenodd" />
        <path d="M-134.5-1.5717-157.498-14.5-180.497-1.5717-180.497 24.5717-157.498 37.4968-134.5 24.5717Z"
            stroke="#7FCED6" stroke-linejoin="round" stroke-miterlimit="10" fill="#7FCED6" fill-rule="evenodd" />
        <path d="M-66.5001-67.5717-43.4001-80.5001-20.5001-67.5717-20.5001-41.4284-43.6-28.5033-66.5001-41.4284Z"
            stroke="#DDF4F7" stroke-linejoin="round" stroke-miterlimit="10" fill="#DDF4F7" fill-rule="evenodd" />
        <path
            d="M47.4984-81.0033 69.9968-94.3269 69.9968-120.673 47.4984-133.997 25-120.673 25-94.2255 47.4984-81.0033Z"
            fill="#FFFFFF" fill-rule="evenodd" fill-opacity="0.384314" />
        <path
            d="M-180.998-81.0033-158-94.3269-158-120.673-180.998-133.997-203.997-120.673-203.997-94.2255-180.998-81.0033Z"
            fill="#FFFFFF" fill-rule="evenodd" />
        <path d="M-111.503-120.173-134.549-133.497-157.497-120.173-157.497-93.7255-134.451-80.5033-111.503-93.8269Z"
            stroke="#7FCED6" stroke-linejoin="round" stroke-miterlimit="10" fill="#7FCED6" fill-rule="evenodd" />
        <path d="M-134.5-80.5001-157.498-93.4968-180.497-80.5001-180.497-54.5001-157.498-41.5033-134.5-54.5001Z"
            stroke="#7FCED6" stroke-linejoin="round" stroke-miterlimit="10" fill="#7FCED6" fill-rule="evenodd" />
        <path d="M-112.452-42.0032-90.0032-55-90.0032-81-112.452-93.9968-134.997-81-134.9-55-112.452-42.0032Z"
            fill="#7FCED6" fill-rule="evenodd" fill-opacity="0.647059" />
        <path d="M-44-81-67.0999-93.9968-90-81-90-55-67.0999-42.0032-44-55Z" fill="#AEE1E6" fill-rule="evenodd" />
        <path d="M-21-120.673-44.0999-133.997-67-120.673-67-94.2255-43.9001-81.0033-21-94.3269Z" fill="#55BDDC"
            fill-rule="evenodd" />
        <path d="M25.3983-120.173 2.45076-133.497-20.4968-120.173-20.4968-93.7255 2.45076-80.5033 25.4968-93.8269Z"
            stroke="#7FCED6" stroke-linejoin="round" stroke-miterlimit="10" fill="#7FCED6" fill-rule="evenodd" />
        <path d="M162-120.673 139.002-133.997 116.003-120.673 116.003-94.2255 139.002-81.0033 162-94.3269Z"
            fill="#FFFFFF" fill-rule="evenodd" />
        <path d="M139.5-80.5001 116.551-93.4968 93.5-80.5001 93.6018-54.5001 116.551-41.5033 139.5-54.5001Z"
            stroke="#7FCED6" stroke-linejoin="round" stroke-miterlimit="10" fill="#7FCED6" fill-rule="evenodd" />
        <path d="M184.898-81 161.951-93.9968 139.003-81 139.003-55 161.951-42.0032 184.997-55Z" fill="#7FCED6"
            fill-rule="evenodd" />
        <path d="M207.498-42.0032 229.997-55 229.997-81 207.498-93.9968 185-81 185-55 207.498-42.0032Z" fill="#FFFFFF"
            fill-rule="evenodd" fill-opacity="0.384314" />
        <path d="M252.997-120.673 229.998-133.997 207-120.673 207-94.2255 229.998-81.0033 252.997-94.3269Z"
            fill="#DDF4F7" fill-rule="evenodd" />
        <path d="M-112.003-41.7246-135.049-54.9967-157.997-41.7246-157.997-15.1769-134.951-2-112.003-15.1769Z"
            fill="#7FCED6" fill-rule="evenodd" />
        <path d="M-90.0032-2.07168-112.452-15-134.997-2.07168-134.9 24.0717-112.452 36.9968-90.0032 24.0717Z"
            fill="#7FCED6" fill-rule="evenodd" fill-opacity="0.647059" />
        <path
            d="M-43.4001-1.50005-20.5001-14.677-20.5001-41.2246-43.6-54.4968-66.5001-41.2246-66.5001-14.677-43.4001-1.50005Z"
            stroke="#FFFFFF" stroke-linejoin="round" stroke-miterlimit="10" fill="#FFFFFF" fill-rule="evenodd" />
        <path d="M24.8982-41.7246 1.95076-54.9967-20.9967-41.7246-20.9967-15.1769 1.95076-2 24.9967-15.1769Z"
            fill="#DDF4F7" fill-rule="evenodd" />
        <path d="M69.9984 36.9968 92.9967 24.0717 92.9967-2.07168 69.9984-15 47-2.07168 47 24.0717 69.9984 36.9968Z"
            fill="#FFFFFF" fill-rule="evenodd" fill-opacity="0.384314" />
        <path d="M116-41.7246 92.9491-54.9967 70-41.7246 70-15.1769 93.0509-2 116-15.1769Z" fill="#FFFFFF"
            fill-rule="evenodd" />
        <path d="M252.997-41.7246 229.998-54.9967 207-41.7246 207-15.1769 229.998-2 252.997-15.1769Z" fill="#7FCED6"
            fill-rule="evenodd" fill-opacity="0.647059" />
        <path d="M-112.003 37.1737-135.049 24-157.997 37.1737-157.997 63.7246-134.951 76.9967-112.003 63.7246Z"
            fill="#FFFFFF" fill-rule="evenodd" />
        <path d="M-134.5 77.7255-157.498 64.5033-180.497 77.8269-180.497 104.176-157.498 117.5-134.5 104.176Z"
            stroke="#7FCED6" stroke-linejoin="round" stroke-miterlimit="10" fill="#7FCED6" fill-rule="evenodd" />
        <path d="M-44 77.2255-67.0999 64.0033-90 77.3269-90 103.676-67.0999 117-44 103.676Z" fill="#7FCED6"
            fill-rule="evenodd" />
        <path d="M-21 37.1737-44.0999 24-67 37.1737-67 63.7246-43.9001 76.9967-21 63.7246Z" fill="#7FCED6"
            fill-rule="evenodd" fill-opacity="0.647059" />
        <path d="M25.3983 37.6737 2.45076 24.5001-20.4968 37.6737-20.4968 64.2246 2.45076 77.4968 25.4968 64.2246Z"
            stroke="#DDF4F7" stroke-linejoin="round" stroke-miterlimit="10" fill="#DDF4F7" fill-rule="evenodd" />
        <path d="M69.9968 37.1737 47.4984 24 25 37.1737 25 63.7246 47.4984 76.9967 69.9968 63.7246Z" fill="#DDF4F7"
            fill-rule="evenodd" />
        <path
            d="M25.0492 117 47.9967 103.676 47.9967 77.2255 24.9508 64.0033 2.00328 77.3269 2.00328 103.676 25.0492 117Z"
            fill="#FFFFFF" fill-rule="evenodd" fill-opacity="0.384314" />
        <path
            d="M-180.498 156.497-157.5 143.173-157.5 116.726-180.498 103.503-203.497 116.827-203.497 143.173-180.498 156.497Z"
            stroke="#FFFFFF" stroke-linejoin="round" stroke-miterlimit="10" fill="#FFFFFF" fill-rule="evenodd" />
        <path d="M-112.003 116.225-135.049 103.003-157.997 116.327-157.997 142.673-134.951 155.997-112.003 142.673Z"
            fill="#AEE1E6" fill-rule="evenodd" />
        <path d="M252.898-68 275.997-81.1769 275.997-107.725 253.098-120.997 230-107.725 230-81.1769 252.898-68Z"
            fill="#FFFFFF" fill-rule="evenodd" fill-opacity="0.384314" />
        <path d="M392.002-68 415-81.1769 415-107.725 392.002-120.997 369.003-107.725 369.003-81.1769 392.002-68Z"
            fill="#FFFFFF" fill-rule="evenodd" fill-opacity="0.380392" />
        <path
            d="M-112.452 294-90.0032 280.725-90.0032 254.177-112.452 241.003-134.9 254.177-134.997 280.725-112.452 294Z"
            fill="#FFFFFF" fill-rule="evenodd" />
        <path d="M185-107.725 207.498-120.997 229.997-107.725 229.997-81.1769 207.498-68 185-81.1769Z" fill="#DDF4F7"
            fill-rule="evenodd" />
        <path d="M207-68.0717 229.998-81 252.997-68.0717 252.997-41.9283 229.998-29.0032 207-41.9283Z" fill="#FFFFFF"
            fill-rule="evenodd" fill-opacity="0.384314" />
        <path d="M139.002 55 162 41.927 162 16.073 139.002 3 116.003 15.9767 116.003 41.927 139.002 55Z" fill="#FFFFFF"
            fill-rule="evenodd" fill-opacity="0.384314" />
        <path d="M116.003-68.0717 139.002-81 162-68.0717 162-41.9283 139.002-29.0032 116.003-41.9283Z" fill="#DDF4F7"
            fill-rule="evenodd" fill-opacity="0.792157" />
        <path d="M162.003 42.2508 184.548 29 206.997 42.2508 206.997 68.7492 184.452 82 162.003 68.7492Z" fill="#DDF4F7"
            fill-rule="evenodd" />
        <path d="M299-68.0717 321.45-81 343.997-68.0717 343.9-41.9283 321.45-29.0032 299-41.9283Z" fill="#DDF4F7"
            fill-rule="evenodd" />
        <path d="M-90 182.275-67.0999 169.003-44 182.275-44.1998 208.823-67.0999 222-90 208.823Z" fill="#DDF4F7"
            fill-rule="evenodd" />
        <path d="M93.1018-107.725 116.051-120.997 139-107.725 139-81.1769 116.051-68 93-81.1769Z" fill="#7FCED6"
            fill-rule="evenodd" fill-opacity="0.647059" />
        <path d="M47-107.725 69.9984-120.997 92.9967-107.725 92.9967-81.1769 69.9984-68 47-81.1769Z" fill="#DDF4F7"
            fill-rule="evenodd" />
        <path d="M-90-107.725-67.0999-120.997-44-107.725-44-81.1769-67.0999-68-90-81.1769Z" fill="#AEE1E6"
            fill-rule="evenodd" />
        <path d="M-112-68.0717-89.5016-81-67.0032-68.0717-67.0032-41.9283-89.5016-29.0032-112-41.9283Z" fill="#7FCED6"
            fill-rule="evenodd" />
        <path
            d="M-135.049-29.0032-112.003-41.9283-112.003-68.0717-134.951-81-157.997-68.0717-157.997-41.9283-135.049-29.0032Z"
            fill="#FFFFFF" fill-rule="evenodd" fill-opacity="0.384314" />
        <path d="M-180.997-107.725-157.998-120.997-135-107.725-135-81.1769-157.998-68-180.997-81.1769Z" fill="#DDF4F7"
            fill-rule="evenodd" />
        <path d="M47-28.8263 69.9984-42 92.9967-28.8263 92.9967-2.27545 69.9984 10.9967 47-2.27545Z" fill="#7FCED6"
            fill-rule="evenodd" />
        <path d="M47 165.225 69.9984 152 92.9967 165.324 92.9967 191.673 69.9984 204.997 47 191.673Z" fill="#7FCED6"
            fill-rule="evenodd" />
        <path d="M276.5-28.3264 299.498-41.5 322.497-28.3264 322.497-1.77542 299.498 11.4968 276.5-1.77542Z"
            stroke="#7FCED6" stroke-linejoin="round" stroke-miterlimit="10" fill="#7FCED6" fill-rule="evenodd" />
        <path
            d="M1.95076 50.9967 24.8982 37.6731 24.9967 11.3269 1.95076-1.99673-20.9967 11.2255-20.9967 37.6731 1.95076 50.9967Z"
            fill="#FFFFFF" fill-rule="evenodd" fill-opacity="0.384314" />
        <path d="M-43.9967-28.8263-20.9984-42 2-28.8263 2-2.27545-20.9984 10.9967-43.9967-2.27545Z" fill="#7FCED6"
            fill-rule="evenodd" fill-opacity="0.647059" />
        <path d="M-157.997 11.2255-134.951-1.99673-112.003 11.3269-112.003 37.6731-135.049 50.9967-157.997 37.6731Z"
            fill="#7FCED6" fill-rule="evenodd" fill-opacity="0.647059" />
        <path d="M-180.997-28.8263-157.998-42-135-28.8263-135-2.27545-157.998 10.9967-180.997-2.27545Z" fill="#DDF4F7"
            fill-rule="evenodd" />
        <path d="M2.00328 50.3236 25.0492 37 47.9967 50.3236 47.9967 76.6731 24.9508 89.9967 2.00328 76.6731Z"
            fill="#7FCED6" fill-rule="evenodd" fill-opacity="0.647059" />
        <path d="M-90 50.3236-67.0999 37-44 50.3236-44 76.6731-67.0999 89.9967-90 76.6731Z" fill="#DDF4F7"
            fill-rule="evenodd" fill-opacity="0.792157" />
        <path d="M-90 129.928-67.0999 117.003-44 129.928-44 156.072-67.0999 169-90 156.072Z" fill="#7FCED6"
            fill-rule="evenodd" />
        <path d="M-89.5016 130-67.0032 116.851-67.0032 90.3491-89.5016 77-112 90.3491-112 116.749-89.5016 130Z"
            fill="#7FCED6" fill-rule="evenodd" fill-opacity="0.647059" />
        <path d="M-157.997 90.3491-134.951 77-112.003 90.3491-112.003 116.851-135.049 130-157.997 116.749Z"
            fill="#DDF4F7" fill-rule="evenodd" fill-opacity="0.792157" />
        <path d="M-157.998 89.9967-135 76.6731-135 50.3236-157.998 37-180.997 50.3236-180.997 76.6731-157.998 89.9967Z"
            fill="#7FCED6" fill-rule="evenodd" fill-opacity="0.647059" />
        <path d="M-180.997 129.928-157.998 117.003-135 129.928-135 156.072-157.998 169-180.997 156.072Z" fill="#7FCED6"
            fill-rule="evenodd" fill-opacity="0.647059" />
        <path
            d="M184.452-29.0032 206.997-41.9283 206.997-68.0717 184.548-81 162.003-68.0717 162.003-41.9283 184.452-29.0032Z"
            fill="#7FCED6" fill-rule="evenodd" fill-opacity="0.647059" />
    </g>
</svg>