<svg width="620" height="430" xmlns="http://www.w3.org/2000/svg" xmlns:xlink="http://www.w3.org/1999/xlink"
    overflow="hidden">
    <defs>
        <clipPath id="clip0">
            <rect x="513" y="214" width="620" height="430" />
        </clipPath>
    </defs>
    <g clip-path="url(#clip0)" transform="translate(-513 -214)">
        <path
            d="M1018.5 458.503 995.503 471.575 995.503 497.425 1018.5 510.497 1041.5 497.524 1041.5 471.575 1018.5 458.503Z"
            stroke="#FFFFFF" stroke-linejoin="round" stroke-miterlimit="10" fill="#FFFFFF" fill-rule="evenodd" />
        <path d="M1064.5 510.572 1087 523.5 1109.5 510.572 1109.5 484.428 1087 471.503 1064.5 484.428Z" stroke="#7FCED6"
            stroke-linejoin="round" stroke-miterlimit="10" fill="#7FCED6" fill-rule="evenodd" />
        <path d="M995.5 576.572 972.4 589.5 949.5 576.572 949.5 550.428 972.6 537.503 995.5 550.428Z" stroke="#DDF4F7"
            stroke-linejoin="round" stroke-miterlimit="10" fill="#DDF4F7" fill-rule="evenodd" />
        <path
            d="M881.002 589.003 858.003 602.327 858.003 628.673 881.002 641.997 904 628.673 904 602.225 881.002 589.003Z"
            fill="#FFFFFF" fill-rule="evenodd" fill-opacity="0.384314" />
        <path d="M1109.5 589.003 1087 602.327 1087 628.673 1109.5 641.997 1132 628.673 1132 602.225 1109.5 589.003Z"
            fill="#FFFFFF" fill-rule="evenodd" />
        <path d="M1041.5 629.173 1064.55 642.497 1087.5 629.173 1087.5 602.726 1064.45 589.503 1041.5 602.827Z"
            stroke="#7FCED6" stroke-linejoin="round" stroke-miterlimit="10" fill="#7FCED6" fill-rule="evenodd" />
        <path d="M1064.5 590.25 1087 603.497 1109.5 590.25 1109.5 563.75 1087 550.503 1064.5 563.75Z" stroke="#7FCED6"
            stroke-linejoin="round" stroke-miterlimit="10" fill="#7FCED6" fill-rule="evenodd" />
        <path d="M1040.95 550.003 1018 563.25 1018 589.75 1040.95 602.997 1064 589.75 1063.9 563.25 1040.95 550.003Z"
            fill="#7FCED6" fill-rule="evenodd" fill-opacity="0.647059" />
        <path d="M972 589.75 995.1 602.997 1018 589.75 1018 563.25 995.1 550.003 972 563.25Z" fill="#AEE1E6"
            fill-rule="evenodd" />
        <path d="M949 628.673 972.1 641.997 995 628.673 995 602.225 971.9 589.003 949 602.327Z" fill="#55BDDC"
            fill-rule="evenodd" />
        <path d="M904.6 629.173 927.048 642.497 949.497 629.173 949.497 602.726 927.048 589.503 904.503 602.827Z"
            stroke="#7FCED6" stroke-linejoin="round" stroke-miterlimit="10" fill="#7FCED6" fill-rule="evenodd" />
        <path d="M767 628.673 789.498 641.997 811.997 628.673 811.997 602.225 789.498 589.003 767 602.327Z"
            fill="#FFFFFF" fill-rule="evenodd" />
        <path d="M790.5 590.25 812.95 603.497 835.5 590.25 835.401 563.75 812.95 550.503 790.5 563.75Z" stroke="#7FCED6"
            stroke-linejoin="round" stroke-miterlimit="10" fill="#7FCED6" fill-rule="evenodd" />
        <path d="M744.102 589.75 767.049 602.997 789.997 589.75 789.997 563.25 767.049 550.003 744.003 563.25Z"
            fill="#7FCED6" fill-rule="evenodd" />
        <path d="M721.002 550.003 698.003 563.25 698.003 589.75 721.002 602.997 744 589.75 744 563.25 721.002 550.003Z"
            fill="#FFFFFF" fill-rule="evenodd" fill-opacity="0.384314" />
        <path d="M675.003 628.673 698.002 641.997 721 628.673 721 602.225 698.002 589.003 675.003 602.327Z"
            fill="#DDF4F7" fill-rule="evenodd" />
        <path d="M1041 549.725 1064.05 562.997 1087 549.725 1087 523.177 1063.95 510 1041 523.177Z" fill="#7FCED6"
            fill-rule="evenodd" />
        <path d="M1018 510.072 1040.95 523 1064 510.072 1063.9 483.928 1040.95 471.003 1018 483.928Z" fill="#7FCED6"
            fill-rule="evenodd" fill-opacity="0.647059" />
        <path d="M972.4 510.5 949.5 523.677 949.5 550.225 972.6 563.497 995.5 550.225 995.5 523.677 972.4 510.5Z"
            stroke="#FFFFFF" stroke-linejoin="round" stroke-miterlimit="10" fill="#FFFFFF" fill-rule="evenodd" />
        <path d="M904.1 549.725 926.548 562.997 948.997 549.725 948.997 523.177 926.548 510 904.003 523.177Z"
            fill="#DDF4F7" fill-rule="evenodd" />
        <path d="M858.002 471.003 835.003 483.928 835.003 510.072 858.002 523 881 510.072 881 483.928 858.002 471.003Z"
            fill="#FFFFFF" fill-rule="evenodd" fill-opacity="0.384314" />
        <path d="M812 549.975 835.051 562.997 858 549.975 858 523.928 834.949 511 812 523.928Z" fill="#FFFFFF"
            fill-rule="evenodd" />
        <path d="M675.003 549.725 698.002 562.997 721 549.725 721 523.177 698.002 510 675.003 523.177Z" fill="#7FCED6"
            fill-rule="evenodd" fill-opacity="0.647059" />
        <path d="M1041 470.826 1064.05 484 1087 470.826 1087 444.275 1063.95 431.003 1041 444.275Z" fill="#FFFFFF"
            fill-rule="evenodd" />
        <path d="M1064.5 431.524 1087 444.497 1109.5 431.425 1109.5 405.572 1087 392.5 1064.5 405.572Z" stroke="#7FCED6"
            stroke-linejoin="round" stroke-miterlimit="10" fill="#7FCED6" fill-rule="evenodd" />
        <path d="M972 431.024 995.1 443.997 1018 430.925 1018 405.072 995.1 392 972 405.072Z" fill="#7FCED6"
            fill-rule="evenodd" />
        <path d="M949 470.826 972.1 484 995 470.826 995 444.275 971.9 431.003 949 444.275Z" fill="#7FCED6"
            fill-rule="evenodd" fill-opacity="0.647059" />
        <path d="M904.6 471.326 927.048 484.5 949.497 471.326 949.497 444.776 927.048 431.503 904.503 444.776Z"
            stroke="#DDF4F7" stroke-linejoin="round" stroke-miterlimit="10" fill="#DDF4F7" fill-rule="evenodd" />
        <path d="M858.003 470.826 881.002 484 904 470.826 904 444.275 881.002 431.003 858.003 444.275Z" fill="#DDF4F7"
            fill-rule="evenodd" />
        <path
            d="M903.951 392 881.003 405.072 881.003 431.024 904.049 443.997 926.997 430.925 926.997 405.072 903.951 392Z"
            fill="#FFFFFF" fill-rule="evenodd" fill-opacity="0.384314" />
        <path d="M1110 352.503 1087.5 365.827 1087.5 392.275 1110 405.497 1132.5 392.173 1132.5 365.827 1110 352.503Z"
            stroke="#FFFFFF" stroke-linejoin="round" stroke-miterlimit="10" fill="#FFFFFF" fill-rule="evenodd" />
        <path d="M1041 391.775 1064.05 404.997 1087 391.673 1087 365.327 1063.95 352.003 1041 365.327Z" fill="#AEE1E6"
            fill-rule="evenodd" />
        <path d="M675.102 576 652.003 589.177 652.003 615.725 674.902 628.997 698 615.725 698 589.177 675.102 576Z"
            fill="#FFFFFF" fill-rule="evenodd" fill-opacity="0.384314" />
        <path d="M535.998 576 513 589.177 513 615.725 535.998 628.997 558.997 615.725 558.997 589.177 535.998 576Z"
            fill="#FFFFFF" fill-rule="evenodd" fill-opacity="0.380392" />
        <path d="M1040.95 215 1018 228.025 1018 254.072 1040.95 266.997 1063.9 254.072 1064 228.025 1040.95 215Z"
            fill="#FFFFFF" fill-rule="evenodd" />
        <path d="M744 615.725 721.002 628.997 698.003 615.725 698.003 589.177 721.002 576 744 589.177Z" fill="#DDF4F7"
            fill-rule="evenodd" />
        <path d="M721 576.072 698.002 589 675.003 576.072 675.003 549.928 698.002 537.003 721 549.928Z" fill="#FFFFFF"
            fill-rule="evenodd" fill-opacity="0.384314" />
        <path d="M811.997 576.072 789.498 589 767 576.072 767 549.928 789.498 537.003 811.997 549.928Z" fill="#DDF4F7"
            fill-rule="evenodd" fill-opacity="0.792157" />
        <path d="M630 576.072 607.051 589 584.003 576.072 584.102 549.928 607.051 537.003 630 549.928Z" fill="#DDF4F7"
            fill-rule="evenodd" />
        <path d="M1018 325.725 995.1 338.997 972 325.725 972.2 299.177 995.1 286 1018 299.177Z" fill="#DDF4F7"
            fill-rule="evenodd" />
        <path d="M834.9 615.725 812.45 628.997 790 615.725 790 589.177 812.45 576 835 589.177Z" fill="#7FCED6"
            fill-rule="evenodd" fill-opacity="0.647059" />
        <path d="M881 615.725 858.002 628.997 835.003 615.725 835.003 589.177 858.002 576 881 589.177Z" fill="#DDF4F7"
            fill-rule="evenodd" />
        <path d="M1018 615.725 995.1 628.997 972 615.725 972 589.177 995.1 576 1018 589.177Z" fill="#AEE1E6"
            fill-rule="evenodd" />
        <path d="M1041 576.072 1018 589 995.003 576.072 995.003 549.928 1018 537.003 1041 549.928Z" fill="#7FCED6"
            fill-rule="evenodd" />
        <path d="M1064.05 537.003 1041 549.928 1041 576.072 1063.95 589 1087 576.072 1087 549.928 1064.05 537.003Z"
            fill="#FFFFFF" fill-rule="evenodd" fill-opacity="0.384314" />
        <path d="M1109 615.725 1086.5 628.997 1064 615.725 1064 589.177 1086.5 576 1109 589.177Z" fill="#DDF4F7"
            fill-rule="evenodd" />
        <path d="M881 536.826 858.002 550 835.003 536.826 835.003 510.275 858.002 497.003 881 510.275Z" fill="#7FCED6"
            fill-rule="evenodd" />
        <path d="M652.5 537.326 630.002 550.5 607.503 537.326 607.503 510.776 630.002 497.503 652.5 510.776Z"
            stroke="#7FCED6" stroke-linejoin="round" stroke-miterlimit="10" fill="#7FCED6" fill-rule="evenodd" />
        <path
            d="M926.548 458.003 904.1 471.075 904.003 496.925 926.548 509.997 948.997 497.024 948.997 471.075 926.548 458.003Z"
            fill="#FFFFFF" fill-rule="evenodd" fill-opacity="0.384314" />
        <path d="M971.997 536.826 949.498 550 927 536.826 927 510.275 949.498 497.003 971.997 510.275Z" fill="#7FCED6"
            fill-rule="evenodd" fill-opacity="0.647059" />
        <path d="M1087 497.024 1063.95 509.997 1041 496.925 1041 471.075 1064.05 458.003 1087 471.075Z" fill="#7FCED6"
            fill-rule="evenodd" fill-opacity="0.647059" />
        <path d="M1109 536.826 1086.5 550 1064 536.826 1064 510.275 1086.5 497.003 1109 510.275Z" fill="#DDF4F7"
            fill-rule="evenodd" />
        <path d="M926.997 457.676 903.951 471 881.003 457.676 881.003 431.327 904.049 418.003 926.997 431.327Z"
            fill="#7FCED6" fill-rule="evenodd" fill-opacity="0.647059" />
        <path d="M1018 457.676 995.1 471 972 457.676 972 431.327 995.1 418.003 1018 431.327Z" fill="#DDF4F7"
            fill-rule="evenodd" fill-opacity="0.792157" />
        <path d="M1018 378.823 995.1 391.997 972 378.823 972 352.177 995.1 339 1018 352.177Z" fill="#7FCED6"
            fill-rule="evenodd" />
        <path d="M1018 379 995.003 391.901 995.003 417.903 1018 431 1041 417.903 1041 392.001 1018 379Z" fill="#7FCED6"
            fill-rule="evenodd" fill-opacity="0.647059" />
        <path d="M1087 417.903 1063.95 431 1041 417.903 1041 391.901 1064.05 379 1087 392.001Z" fill="#DDF4F7"
            fill-rule="evenodd" fill-opacity="0.792157" />
        <path d="M1086.5 418.003 1064 431.327 1064 457.676 1086.5 471 1109 457.676 1109 431.327 1086.5 418.003Z"
            fill="#7FCED6" fill-rule="evenodd" fill-opacity="0.647059" />
        <path d="M1109 378.823 1086.5 391.997 1064 378.823 1064 352.177 1086.5 339 1109 352.177Z" fill="#7FCED6"
            fill-rule="evenodd" fill-opacity="0.647059" />
        <path
            d="M744.049 537.003 721.003 549.928 721.003 576.072 743.951 589 766.997 576.072 766.997 549.928 744.049 537.003Z"
            fill="#7FCED6" fill-rule="evenodd" fill-opacity="0.647059" />
        <path d="M789.498 453 767 466.324 767 492.676 789.498 506 811.997 492.774 811.997 466.324 789.498 453Z"
            fill="#FFFFFF" fill-rule="evenodd" fill-opacity="0.384314" />
        <path d="M766.997 465.749 743.951 479 721.003 465.749 721.003 439.251 744.049 426 766.997 439.251Z"
            fill="#DDF4F7" fill-rule="evenodd" />
        <path d="M881 342.775 858.002 356 835.003 342.676 835.003 316.327 858.002 303.003 881 316.327Z" fill="#7FCED6"
            fill-rule="evenodd" />
    </g>
</svg>